%TF.GenerationSoftware,KiCad,Pcbnew,(6.0.6-0)*%
%TF.CreationDate,2022-10-25T05:48:03+09:00*%
%TF.ProjectId,PicoPi-1,5069636f-5069-42d3-912e-6b696361645f,rev?*%
%TF.SameCoordinates,Original*%
%TF.FileFunction,Copper,L2,Bot*%
%TF.FilePolarity,Positive*%
%FSLAX46Y46*%
G04 Gerber Fmt 4.6, Leading zero omitted, Abs format (unit mm)*
G04 Created by KiCad (PCBNEW (6.0.6-0)) date 2022-10-25 05:48:03*
%MOMM*%
%LPD*%
G01*
G04 APERTURE LIST*
%TA.AperFunction,ComponentPad*%
%ADD10C,1.600000*%
%TD*%
%TA.AperFunction,ComponentPad*%
%ADD11R,1.700000X1.700000*%
%TD*%
%TA.AperFunction,ComponentPad*%
%ADD12O,1.700000X1.700000*%
%TD*%
%TA.AperFunction,ViaPad*%
%ADD13C,0.800000*%
%TD*%
%TA.AperFunction,Conductor*%
%ADD14C,1.000000*%
%TD*%
%TA.AperFunction,Conductor*%
%ADD15C,0.500000*%
%TD*%
G04 APERTURE END LIST*
D10*
%TO.P,J1,1,Pin_1*%
%TO.N,/G1*%
X124968000Y-132080000D03*
%TO.P,J1,2,Pin_2*%
%TO.N,/G2*%
X124968000Y-134620000D03*
%TO.P,J1,3,Pin_3*%
%TO.N,GND*%
X124968000Y-137160000D03*
%TO.P,J1,4,Pin_4*%
%TO.N,/B1*%
X124968000Y-139700000D03*
%TO.P,J1,5,Pin_5*%
%TO.N,/B2*%
X124968000Y-142240000D03*
%TO.P,J1,6,Pin_6*%
%TO.N,/B3*%
X124968000Y-144780000D03*
%TO.P,J1,7,Pin_7*%
%TO.N,/B4*%
X124968000Y-147320000D03*
%TO.P,J1,8,Pin_8*%
%TO.N,GND*%
X124968000Y-149860000D03*
%TO.P,J1,9,Pin_9*%
%TO.N,/X0*%
X124968000Y-152400000D03*
%TO.P,J1,10,Pin_10*%
%TO.N,/X1*%
X124968000Y-154940000D03*
%TO.P,J1,11,Pin_11*%
%TO.N,/X2*%
X124968000Y-157480000D03*
%TO.P,J1,12,Pin_12*%
%TO.N,/X3*%
X124968000Y-160020000D03*
%TO.P,J1,13,Pin_13*%
%TO.N,GND*%
X124968000Y-162560000D03*
%TO.P,J1,14,Pin_14*%
%TO.N,/X4*%
X124968000Y-165100000D03*
%TO.P,J1,15,Pin_15*%
%TO.N,/X5*%
X124968000Y-167640000D03*
%TO.P,J1,16,Pin_16*%
%TO.N,/X6*%
X124968000Y-170180000D03*
%TO.P,J1,17,Pin_17*%
%TO.N,/X7*%
X124968000Y-172720000D03*
%TO.P,J1,18,Pin_18*%
%TO.N,GND*%
X124968000Y-175260000D03*
%TO.P,J1,19,Pin_19*%
%TO.N,/X8*%
X124968000Y-177800000D03*
%TO.P,J1,20,Pin_20*%
%TO.N,/X9*%
X124968000Y-180340000D03*
%TO.P,J1,21,Pin_21*%
%TO.N,/Y0*%
X142748000Y-180340000D03*
%TO.P,J1,22,Pin_22*%
%TO.N,/Y1*%
X142748000Y-177800000D03*
%TO.P,J1,23,Pin_23*%
%TO.N,GND*%
X142748000Y-175260000D03*
%TO.P,J1,24,Pin_24*%
%TO.N,/Y2*%
X142748000Y-172720000D03*
%TO.P,J1,25,Pin_25*%
%TO.N,/Y3*%
X142748000Y-170180000D03*
%TO.P,J1,26,Pin_26*%
%TO.N,/Y4*%
X142748000Y-167640000D03*
%TO.P,J1,27,Pin_27*%
%TO.N,/Y5*%
X142748000Y-165100000D03*
%TO.P,J1,28,Pin_28*%
%TO.N,GND*%
X142748000Y-162560000D03*
%TO.P,J1,29,Pin_29*%
%TO.N,/Y6*%
X142748000Y-160020000D03*
%TO.P,J1,30,Pin_30*%
%TO.N,unconnected-(J1-Pad30)*%
X142748000Y-157480000D03*
%TO.P,J1,31,Pin_31*%
%TO.N,/Y7*%
X142748000Y-154940000D03*
%TO.P,J1,32,Pin_32*%
%TO.N,/Y8*%
X142748000Y-152400000D03*
%TO.P,J1,33,Pin_33*%
%TO.N,GND*%
X142748000Y-149860000D03*
%TO.P,J1,34,Pin_34*%
%TO.N,/Y9*%
X142748000Y-147320000D03*
%TO.P,J1,35,Pin_35*%
%TO.N,unconnected-(J1-Pad35)*%
X142748000Y-144780000D03*
%TO.P,J1,36,Pin_36*%
%TO.N,+3.3V*%
X142748000Y-142240000D03*
%TO.P,J1,37,Pin_37*%
%TO.N,unconnected-(J1-Pad37)*%
X142748000Y-139700000D03*
%TO.P,J1,38,Pin_38*%
%TO.N,GND*%
X142748000Y-137160000D03*
%TO.P,J1,39,Pin_39*%
%TO.N,unconnected-(J1-Pad39)*%
X142748000Y-134620000D03*
%TO.P,J1,40,Pin_40*%
%TO.N,unconnected-(J1-Pad40)*%
X142748000Y-132080000D03*
%TD*%
D11*
%TO.P,J2,1,Pin_1*%
%TO.N,/G1*%
X114300000Y-170185000D03*
D12*
%TO.P,J2,2,Pin_2*%
%TO.N,/B1*%
X114300000Y-172725000D03*
%TO.P,J2,3,Pin_3*%
%TO.N,/B2*%
X114300000Y-175265000D03*
%TO.P,J2,4,Pin_4*%
%TO.N,/B3*%
X114300000Y-177805000D03*
%TO.P,J2,5,Pin_5*%
%TO.N,/B4*%
X114300000Y-180345000D03*
%TD*%
D11*
%TO.P,J3,1,Pin_1*%
%TO.N,/G2*%
X153670000Y-170180000D03*
D12*
%TO.P,J3,2,Pin_2*%
%TO.N,/B1*%
X153670000Y-172720000D03*
%TO.P,J3,3,Pin_3*%
%TO.N,/B2*%
X153670000Y-175260000D03*
%TO.P,J3,4,Pin_4*%
%TO.N,/B3*%
X153670000Y-177800000D03*
%TO.P,J3,5,Pin_5*%
%TO.N,/B4*%
X153670000Y-180340000D03*
%TD*%
D11*
%TO.P,J4,1,Pin_1*%
%TO.N,/X*%
X111760000Y-130810000D03*
D12*
%TO.P,J4,2,Pin_2*%
%TO.N,GND*%
X114300000Y-130810000D03*
%TD*%
D11*
%TO.P,J5,1,Pin_1*%
%TO.N,/Y*%
X153670000Y-130810000D03*
D12*
%TO.P,J5,2,Pin_2*%
%TO.N,GND*%
X156210000Y-130810000D03*
%TD*%
D13*
%TO.N,/B3*%
X127782300Y-176530100D03*
%TO.N,/B2*%
X129096600Y-173706400D03*
%TD*%
D14*
%TO.N,GND*%
X156210000Y-130810000D02*
X156210000Y-132410000D01*
X126508400Y-148319600D02*
X124968000Y-149860000D01*
X126508400Y-138700400D02*
X126508400Y-148319600D01*
X124968000Y-137160000D02*
X126508400Y-138700400D01*
X144248800Y-148359200D02*
X142748000Y-149860000D01*
X144248800Y-137160000D02*
X144248800Y-148359200D01*
X148998800Y-132410000D02*
X144248800Y-137160000D01*
X156210000Y-132410000D02*
X148998800Y-132410000D01*
X144248800Y-137160000D02*
X142748000Y-137160000D01*
X127968800Y-162560000D02*
X126468400Y-161059600D01*
X142748000Y-162560000D02*
X127968800Y-162560000D01*
X124968000Y-162560000D02*
X126468400Y-161059600D01*
X126468400Y-151360400D02*
X124968000Y-149860000D01*
X126468400Y-161059600D02*
X126468400Y-151360400D01*
X142748000Y-175260000D02*
X124968000Y-175260000D01*
D15*
%TO.N,/G2*%
X133810200Y-143462200D02*
X124968000Y-134620000D01*
X133810200Y-152884600D02*
X133810200Y-143462200D01*
X142215600Y-161290000D02*
X133810200Y-152884600D01*
X143430000Y-161290000D02*
X142215600Y-161290000D01*
X152320000Y-170180000D02*
X143430000Y-161290000D01*
X153670000Y-170180000D02*
X152320000Y-170180000D01*
%TO.N,/B3*%
X153670000Y-177800000D02*
X152320000Y-177800000D01*
X114300000Y-177805000D02*
X115650000Y-177805000D01*
X151050100Y-176530100D02*
X127782300Y-176530100D01*
X152320000Y-177800000D02*
X151050100Y-176530100D01*
X116924900Y-176530100D02*
X115650000Y-177805000D01*
X127782300Y-176530100D02*
X116924900Y-176530100D01*
%TO.N,/B2*%
X153670000Y-175260000D02*
X152320000Y-175260000D01*
X114300000Y-175265000D02*
X115650000Y-175265000D01*
X129096600Y-173990100D02*
X129096600Y-173706400D01*
X151050100Y-173990100D02*
X129096600Y-173990100D01*
X152320000Y-175260000D02*
X151050100Y-173990100D01*
X116924900Y-173990100D02*
X115650000Y-175265000D01*
X129096600Y-173990100D02*
X116924900Y-173990100D01*
%TO.N,/B1*%
X153670000Y-172720000D02*
X152320000Y-172720000D01*
X114300000Y-172725000D02*
X115650000Y-172725000D01*
X123644700Y-141023300D02*
X124968000Y-139700000D01*
X123644700Y-171450100D02*
X123644700Y-141023300D01*
X151050100Y-171450100D02*
X123644700Y-171450100D01*
X152320000Y-172720000D02*
X151050100Y-171450100D01*
X116924900Y-171450100D02*
X115650000Y-172725000D01*
X123644700Y-171450100D02*
X116924900Y-171450100D01*
%TO.N,/G1*%
X114300000Y-142748000D02*
X124968000Y-132080000D01*
X114300000Y-170185000D02*
X114300000Y-142748000D01*
%TD*%
%TA.AperFunction,Conductor*%
%TO.N,GND*%
G36*
X159327121Y-127655002D02*
G01*
X159373614Y-127708658D01*
X159385000Y-127761000D01*
X159385000Y-182754000D01*
X159364998Y-182822121D01*
X159311342Y-182868614D01*
X159259000Y-182880000D01*
X108711000Y-182880000D01*
X108642879Y-182859998D01*
X108596386Y-182806342D01*
X108585000Y-182754000D01*
X108585000Y-180311695D01*
X112937251Y-180311695D01*
X112937548Y-180316848D01*
X112937548Y-180316851D01*
X112942914Y-180409908D01*
X112950110Y-180534715D01*
X112951247Y-180539761D01*
X112951248Y-180539767D01*
X112972265Y-180633023D01*
X112999222Y-180752639D01*
X113083266Y-180959616D01*
X113199987Y-181150088D01*
X113346250Y-181318938D01*
X113421213Y-181381173D01*
X113508123Y-181453327D01*
X113518126Y-181461632D01*
X113711000Y-181574338D01*
X113919692Y-181654030D01*
X113924760Y-181655061D01*
X113924763Y-181655062D01*
X114017970Y-181674025D01*
X114138597Y-181698567D01*
X114143772Y-181698757D01*
X114143774Y-181698757D01*
X114356673Y-181706564D01*
X114356677Y-181706564D01*
X114361837Y-181706753D01*
X114366957Y-181706097D01*
X114366959Y-181706097D01*
X114578288Y-181679025D01*
X114578289Y-181679025D01*
X114583416Y-181678368D01*
X114600082Y-181673368D01*
X114792429Y-181615661D01*
X114792434Y-181615659D01*
X114797384Y-181614174D01*
X114997994Y-181515896D01*
X115179860Y-181386173D01*
X115338096Y-181228489D01*
X115395222Y-181148990D01*
X115465435Y-181051277D01*
X115468453Y-181047077D01*
X115493327Y-180996749D01*
X115565136Y-180851453D01*
X115565137Y-180851451D01*
X115567430Y-180846811D01*
X115632370Y-180633069D01*
X115661529Y-180411590D01*
X115663156Y-180345000D01*
X115644852Y-180122361D01*
X115590431Y-179905702D01*
X115501354Y-179700840D01*
X115380014Y-179513277D01*
X115229670Y-179348051D01*
X115225619Y-179344852D01*
X115225615Y-179344848D01*
X115058414Y-179212800D01*
X115058410Y-179212798D01*
X115054359Y-179209598D01*
X115013053Y-179186796D01*
X114963084Y-179136364D01*
X114948312Y-179066921D01*
X114973428Y-179000516D01*
X115000780Y-178973909D01*
X115056217Y-178934366D01*
X115179860Y-178846173D01*
X115338096Y-178688489D01*
X115390203Y-178615974D01*
X115446198Y-178572326D01*
X115492526Y-178563500D01*
X115582930Y-178563500D01*
X115601880Y-178564933D01*
X115616115Y-178567099D01*
X115616119Y-178567099D01*
X115623349Y-178568199D01*
X115630641Y-178567606D01*
X115630644Y-178567606D01*
X115676018Y-178563915D01*
X115686233Y-178563500D01*
X115694293Y-178563500D01*
X115707583Y-178561951D01*
X115722507Y-178560211D01*
X115726882Y-178559778D01*
X115792339Y-178554454D01*
X115792342Y-178554453D01*
X115799637Y-178553860D01*
X115806601Y-178551604D01*
X115812560Y-178550413D01*
X115818415Y-178549029D01*
X115825681Y-178548182D01*
X115894327Y-178523265D01*
X115898455Y-178521848D01*
X115960936Y-178501607D01*
X115960938Y-178501606D01*
X115967899Y-178499351D01*
X115974154Y-178495555D01*
X115979628Y-178493049D01*
X115985058Y-178490330D01*
X115991937Y-178487833D01*
X116046954Y-178451762D01*
X116052976Y-178447814D01*
X116056680Y-178445477D01*
X116119107Y-178407595D01*
X116127484Y-178400197D01*
X116127508Y-178400224D01*
X116130500Y-178397571D01*
X116133733Y-178394868D01*
X116139852Y-178390856D01*
X116193128Y-178334617D01*
X116195506Y-178332175D01*
X117202176Y-177325505D01*
X117264488Y-177291479D01*
X117291271Y-177288600D01*
X123586164Y-177288600D01*
X123654285Y-177308602D01*
X123700778Y-177362258D01*
X123710882Y-177432532D01*
X123707871Y-177447211D01*
X123674457Y-177571913D01*
X123654502Y-177800000D01*
X123674457Y-178028087D01*
X123675881Y-178033400D01*
X123675881Y-178033402D01*
X123722557Y-178207596D01*
X123733716Y-178249243D01*
X123736039Y-178254224D01*
X123736039Y-178254225D01*
X123828151Y-178451762D01*
X123828154Y-178451767D01*
X123830477Y-178456749D01*
X123874033Y-178518953D01*
X123940579Y-178613990D01*
X123961802Y-178644300D01*
X124123700Y-178806198D01*
X124128208Y-178809355D01*
X124128211Y-178809357D01*
X124206389Y-178864098D01*
X124311251Y-178937523D01*
X124316233Y-178939846D01*
X124316238Y-178939849D01*
X124350457Y-178955805D01*
X124403742Y-179002722D01*
X124423203Y-179070999D01*
X124402661Y-179138959D01*
X124350457Y-179184195D01*
X124316238Y-179200151D01*
X124316233Y-179200154D01*
X124311251Y-179202477D01*
X124206389Y-179275902D01*
X124128211Y-179330643D01*
X124128208Y-179330645D01*
X124123700Y-179333802D01*
X123961802Y-179495700D01*
X123958645Y-179500208D01*
X123958643Y-179500211D01*
X123903902Y-179578389D01*
X123830477Y-179683251D01*
X123828154Y-179688233D01*
X123828151Y-179688238D01*
X123739060Y-179879297D01*
X123733716Y-179890757D01*
X123732294Y-179896065D01*
X123732293Y-179896067D01*
X123681779Y-180084588D01*
X123674457Y-180111913D01*
X123654502Y-180340000D01*
X123674457Y-180568087D01*
X123675881Y-180573400D01*
X123675881Y-180573402D01*
X123723851Y-180752425D01*
X123733716Y-180789243D01*
X123736039Y-180794224D01*
X123736039Y-180794225D01*
X123828151Y-180991762D01*
X123828154Y-180991767D01*
X123830477Y-180996749D01*
X123833634Y-181001257D01*
X123940579Y-181153990D01*
X123961802Y-181184300D01*
X124123700Y-181346198D01*
X124128208Y-181349355D01*
X124128211Y-181349357D01*
X124206389Y-181404098D01*
X124311251Y-181477523D01*
X124316233Y-181479846D01*
X124316238Y-181479849D01*
X124513282Y-181571731D01*
X124518757Y-181574284D01*
X124524065Y-181575706D01*
X124524067Y-181575707D01*
X124734598Y-181632119D01*
X124734600Y-181632119D01*
X124739913Y-181633543D01*
X124968000Y-181653498D01*
X125196087Y-181633543D01*
X125201400Y-181632119D01*
X125201402Y-181632119D01*
X125411933Y-181575707D01*
X125411935Y-181575706D01*
X125417243Y-181574284D01*
X125422718Y-181571731D01*
X125619762Y-181479849D01*
X125619767Y-181479846D01*
X125624749Y-181477523D01*
X125729611Y-181404098D01*
X125807789Y-181349357D01*
X125807792Y-181349355D01*
X125812300Y-181346198D01*
X125974198Y-181184300D01*
X125995422Y-181153990D01*
X126102366Y-181001257D01*
X126105523Y-180996749D01*
X126107846Y-180991767D01*
X126107849Y-180991762D01*
X126199961Y-180794225D01*
X126199961Y-180794224D01*
X126202284Y-180789243D01*
X126212150Y-180752425D01*
X126260119Y-180573402D01*
X126260119Y-180573400D01*
X126261543Y-180568087D01*
X126281498Y-180340000D01*
X126261543Y-180111913D01*
X126254221Y-180084588D01*
X126203707Y-179896067D01*
X126203706Y-179896065D01*
X126202284Y-179890757D01*
X126196940Y-179879297D01*
X126107849Y-179688238D01*
X126107846Y-179688233D01*
X126105523Y-179683251D01*
X126032098Y-179578389D01*
X125977357Y-179500211D01*
X125977355Y-179500208D01*
X125974198Y-179495700D01*
X125812300Y-179333802D01*
X125807792Y-179330645D01*
X125807789Y-179330643D01*
X125729611Y-179275902D01*
X125624749Y-179202477D01*
X125619767Y-179200154D01*
X125619762Y-179200151D01*
X125585543Y-179184195D01*
X125532258Y-179137278D01*
X125512797Y-179069001D01*
X125533339Y-179001041D01*
X125585543Y-178955805D01*
X125619762Y-178939849D01*
X125619767Y-178939846D01*
X125624749Y-178937523D01*
X125729611Y-178864098D01*
X125807789Y-178809357D01*
X125807792Y-178809355D01*
X125812300Y-178806198D01*
X125974198Y-178644300D01*
X125995422Y-178613990D01*
X126061967Y-178518953D01*
X126105523Y-178456749D01*
X126107846Y-178451767D01*
X126107849Y-178451762D01*
X126199961Y-178254225D01*
X126199961Y-178254224D01*
X126202284Y-178249243D01*
X126213444Y-178207596D01*
X126260119Y-178033402D01*
X126260119Y-178033400D01*
X126261543Y-178028087D01*
X126281498Y-177800000D01*
X126261543Y-177571913D01*
X126228129Y-177447211D01*
X126229819Y-177376235D01*
X126269613Y-177317439D01*
X126334877Y-177289491D01*
X126349836Y-177288600D01*
X127239713Y-177288600D01*
X127313772Y-177312663D01*
X127320202Y-177317335D01*
X127320209Y-177317339D01*
X127325548Y-177321218D01*
X127331576Y-177323902D01*
X127331578Y-177323903D01*
X127493981Y-177396209D01*
X127500012Y-177398894D01*
X127593412Y-177418747D01*
X127680356Y-177437228D01*
X127680361Y-177437228D01*
X127686813Y-177438600D01*
X127877787Y-177438600D01*
X127884239Y-177437228D01*
X127884244Y-177437228D01*
X127971188Y-177418747D01*
X128064588Y-177398894D01*
X128070619Y-177396209D01*
X128233022Y-177323903D01*
X128233024Y-177323902D01*
X128239052Y-177321218D01*
X128244391Y-177317339D01*
X128244398Y-177317335D01*
X128250828Y-177312663D01*
X128324887Y-177288600D01*
X141366164Y-177288600D01*
X141434285Y-177308602D01*
X141480778Y-177362258D01*
X141490882Y-177432532D01*
X141487871Y-177447211D01*
X141454457Y-177571913D01*
X141434502Y-177800000D01*
X141454457Y-178028087D01*
X141455881Y-178033400D01*
X141455881Y-178033402D01*
X141502557Y-178207596D01*
X141513716Y-178249243D01*
X141516039Y-178254224D01*
X141516039Y-178254225D01*
X141608151Y-178451762D01*
X141608154Y-178451767D01*
X141610477Y-178456749D01*
X141654033Y-178518953D01*
X141720579Y-178613990D01*
X141741802Y-178644300D01*
X141903700Y-178806198D01*
X141908208Y-178809355D01*
X141908211Y-178809357D01*
X141986389Y-178864098D01*
X142091251Y-178937523D01*
X142096233Y-178939846D01*
X142096238Y-178939849D01*
X142130457Y-178955805D01*
X142183742Y-179002722D01*
X142203203Y-179070999D01*
X142182661Y-179138959D01*
X142130457Y-179184195D01*
X142096238Y-179200151D01*
X142096233Y-179200154D01*
X142091251Y-179202477D01*
X141986389Y-179275902D01*
X141908211Y-179330643D01*
X141908208Y-179330645D01*
X141903700Y-179333802D01*
X141741802Y-179495700D01*
X141738645Y-179500208D01*
X141738643Y-179500211D01*
X141683902Y-179578389D01*
X141610477Y-179683251D01*
X141608154Y-179688233D01*
X141608151Y-179688238D01*
X141519060Y-179879297D01*
X141513716Y-179890757D01*
X141512294Y-179896065D01*
X141512293Y-179896067D01*
X141461779Y-180084588D01*
X141454457Y-180111913D01*
X141434502Y-180340000D01*
X141454457Y-180568087D01*
X141455881Y-180573400D01*
X141455881Y-180573402D01*
X141503851Y-180752425D01*
X141513716Y-180789243D01*
X141516039Y-180794224D01*
X141516039Y-180794225D01*
X141608151Y-180991762D01*
X141608154Y-180991767D01*
X141610477Y-180996749D01*
X141613634Y-181001257D01*
X141720579Y-181153990D01*
X141741802Y-181184300D01*
X141903700Y-181346198D01*
X141908208Y-181349355D01*
X141908211Y-181349357D01*
X141986389Y-181404098D01*
X142091251Y-181477523D01*
X142096233Y-181479846D01*
X142096238Y-181479849D01*
X142293282Y-181571731D01*
X142298757Y-181574284D01*
X142304065Y-181575706D01*
X142304067Y-181575707D01*
X142514598Y-181632119D01*
X142514600Y-181632119D01*
X142519913Y-181633543D01*
X142748000Y-181653498D01*
X142976087Y-181633543D01*
X142981400Y-181632119D01*
X142981402Y-181632119D01*
X143191933Y-181575707D01*
X143191935Y-181575706D01*
X143197243Y-181574284D01*
X143202718Y-181571731D01*
X143399762Y-181479849D01*
X143399767Y-181479846D01*
X143404749Y-181477523D01*
X143509611Y-181404098D01*
X143587789Y-181349357D01*
X143587792Y-181349355D01*
X143592300Y-181346198D01*
X143754198Y-181184300D01*
X143775422Y-181153990D01*
X143882366Y-181001257D01*
X143885523Y-180996749D01*
X143887846Y-180991767D01*
X143887849Y-180991762D01*
X143979961Y-180794225D01*
X143979961Y-180794224D01*
X143982284Y-180789243D01*
X143992150Y-180752425D01*
X144040119Y-180573402D01*
X144040119Y-180573400D01*
X144041543Y-180568087D01*
X144061498Y-180340000D01*
X144041543Y-180111913D01*
X144034221Y-180084588D01*
X143983707Y-179896067D01*
X143983706Y-179896065D01*
X143982284Y-179890757D01*
X143976940Y-179879297D01*
X143887849Y-179688238D01*
X143887846Y-179688233D01*
X143885523Y-179683251D01*
X143812098Y-179578389D01*
X143757357Y-179500211D01*
X143757355Y-179500208D01*
X143754198Y-179495700D01*
X143592300Y-179333802D01*
X143587792Y-179330645D01*
X143587789Y-179330643D01*
X143509611Y-179275902D01*
X143404749Y-179202477D01*
X143399767Y-179200154D01*
X143399762Y-179200151D01*
X143365543Y-179184195D01*
X143312258Y-179137278D01*
X143292797Y-179069001D01*
X143313339Y-179001041D01*
X143365543Y-178955805D01*
X143399762Y-178939849D01*
X143399767Y-178939846D01*
X143404749Y-178937523D01*
X143509611Y-178864098D01*
X143587789Y-178809357D01*
X143587792Y-178809355D01*
X143592300Y-178806198D01*
X143754198Y-178644300D01*
X143775422Y-178613990D01*
X143841967Y-178518953D01*
X143885523Y-178456749D01*
X143887846Y-178451767D01*
X143887849Y-178451762D01*
X143979961Y-178254225D01*
X143979961Y-178254224D01*
X143982284Y-178249243D01*
X143993444Y-178207596D01*
X144040119Y-178033402D01*
X144040119Y-178033400D01*
X144041543Y-178028087D01*
X144061498Y-177800000D01*
X144041543Y-177571913D01*
X144008129Y-177447211D01*
X144009819Y-177376235D01*
X144049613Y-177317439D01*
X144114877Y-177289491D01*
X144129836Y-177288600D01*
X150683729Y-177288600D01*
X150751850Y-177308602D01*
X150772824Y-177325505D01*
X151736230Y-178288911D01*
X151748616Y-178303323D01*
X151757149Y-178314918D01*
X151757154Y-178314923D01*
X151761492Y-178320818D01*
X151767070Y-178325557D01*
X151767073Y-178325560D01*
X151801768Y-178355035D01*
X151809284Y-178361965D01*
X151814980Y-178367661D01*
X151817841Y-178369924D01*
X151817846Y-178369929D01*
X151837266Y-178385293D01*
X151840667Y-178388082D01*
X151896285Y-178435333D01*
X151902798Y-178438659D01*
X151907837Y-178442020D01*
X151912979Y-178445196D01*
X151918716Y-178449734D01*
X151984875Y-178480655D01*
X151988769Y-178482558D01*
X152053808Y-178515769D01*
X152060917Y-178517508D01*
X152066551Y-178519604D01*
X152072321Y-178521523D01*
X152078950Y-178524622D01*
X152086113Y-178526112D01*
X152086116Y-178526113D01*
X152136830Y-178536661D01*
X152150435Y-178539491D01*
X152154701Y-178540457D01*
X152225610Y-178557808D01*
X152231212Y-178558156D01*
X152231215Y-178558156D01*
X152236764Y-178558500D01*
X152236762Y-178558535D01*
X152240734Y-178558775D01*
X152244955Y-178559152D01*
X152252115Y-178560641D01*
X152329542Y-178558546D01*
X152332950Y-178558500D01*
X152472491Y-178558500D01*
X152540612Y-178578502D01*
X152569402Y-178605595D01*
X152569987Y-178605088D01*
X152716250Y-178773938D01*
X152888126Y-178916632D01*
X152955163Y-178955805D01*
X152961445Y-178959476D01*
X153010169Y-179011114D01*
X153023240Y-179080897D01*
X152996509Y-179146669D01*
X152956055Y-179180027D01*
X152943607Y-179186507D01*
X152939474Y-179189610D01*
X152939471Y-179189612D01*
X152769100Y-179317530D01*
X152764965Y-179320635D01*
X152610629Y-179482138D01*
X152607715Y-179486410D01*
X152607714Y-179486411D01*
X152598300Y-179500211D01*
X152484743Y-179666680D01*
X152390688Y-179869305D01*
X152330989Y-180084570D01*
X152307251Y-180306695D01*
X152307548Y-180311848D01*
X152307548Y-180311851D01*
X152313011Y-180406590D01*
X152320110Y-180529715D01*
X152321247Y-180534761D01*
X152321248Y-180534767D01*
X152329955Y-180573402D01*
X152369222Y-180747639D01*
X152453266Y-180954616D01*
X152569987Y-181145088D01*
X152716250Y-181313938D01*
X152888126Y-181456632D01*
X153081000Y-181569338D01*
X153085825Y-181571180D01*
X153085826Y-181571181D01*
X153098920Y-181576181D01*
X153289692Y-181649030D01*
X153294760Y-181650061D01*
X153294763Y-181650062D01*
X153402017Y-181671883D01*
X153508597Y-181693567D01*
X153513772Y-181693757D01*
X153513774Y-181693757D01*
X153726673Y-181701564D01*
X153726677Y-181701564D01*
X153731837Y-181701753D01*
X153736957Y-181701097D01*
X153736959Y-181701097D01*
X153948288Y-181674025D01*
X153948289Y-181674025D01*
X153953416Y-181673368D01*
X154014433Y-181655062D01*
X154162429Y-181610661D01*
X154162434Y-181610659D01*
X154167384Y-181609174D01*
X154367994Y-181510896D01*
X154549860Y-181381173D01*
X154581788Y-181349357D01*
X154704435Y-181227137D01*
X154708096Y-181223489D01*
X154739498Y-181179789D01*
X154835435Y-181046277D01*
X154838453Y-181042077D01*
X154858628Y-181001257D01*
X154935136Y-180846453D01*
X154935137Y-180846451D01*
X154937430Y-180841811D01*
X155002370Y-180628069D01*
X155031529Y-180406590D01*
X155033156Y-180340000D01*
X155014852Y-180117361D01*
X154960431Y-179900702D01*
X154871354Y-179695840D01*
X154831906Y-179634862D01*
X154752822Y-179512617D01*
X154752820Y-179512614D01*
X154750014Y-179508277D01*
X154599670Y-179343051D01*
X154595619Y-179339852D01*
X154595615Y-179339848D01*
X154428414Y-179207800D01*
X154428410Y-179207798D01*
X154424359Y-179204598D01*
X154383053Y-179181796D01*
X154333084Y-179131364D01*
X154318312Y-179061921D01*
X154343428Y-178995516D01*
X154370780Y-178968909D01*
X154437060Y-178921632D01*
X154549860Y-178841173D01*
X154581788Y-178809357D01*
X154704435Y-178687137D01*
X154708096Y-178683489D01*
X154739498Y-178639789D01*
X154835435Y-178506277D01*
X154838453Y-178502077D01*
X154848099Y-178482561D01*
X154935136Y-178306453D01*
X154935137Y-178306451D01*
X154937430Y-178301811D01*
X155002370Y-178088069D01*
X155031529Y-177866590D01*
X155033156Y-177800000D01*
X155014852Y-177577361D01*
X154960431Y-177360702D01*
X154871354Y-177155840D01*
X154831906Y-177094862D01*
X154752822Y-176972617D01*
X154752820Y-176972614D01*
X154750014Y-176968277D01*
X154599670Y-176803051D01*
X154595619Y-176799852D01*
X154595615Y-176799848D01*
X154428414Y-176667800D01*
X154428410Y-176667798D01*
X154424359Y-176664598D01*
X154383053Y-176641796D01*
X154333084Y-176591364D01*
X154318312Y-176521921D01*
X154343428Y-176455516D01*
X154370780Y-176428909D01*
X154437060Y-176381632D01*
X154549860Y-176301173D01*
X154708096Y-176143489D01*
X154838453Y-175962077D01*
X154846983Y-175944819D01*
X154935136Y-175766453D01*
X154935137Y-175766451D01*
X154937430Y-175761811D01*
X155002370Y-175548069D01*
X155031529Y-175326590D01*
X155033156Y-175260000D01*
X155014852Y-175037361D01*
X154960431Y-174820702D01*
X154871354Y-174615840D01*
X154831906Y-174554862D01*
X154752822Y-174432617D01*
X154752820Y-174432614D01*
X154750014Y-174428277D01*
X154599670Y-174263051D01*
X154595619Y-174259852D01*
X154595615Y-174259848D01*
X154428414Y-174127800D01*
X154428410Y-174127798D01*
X154424359Y-174124598D01*
X154383053Y-174101796D01*
X154333084Y-174051364D01*
X154318312Y-173981921D01*
X154343428Y-173915516D01*
X154370780Y-173888909D01*
X154437060Y-173841632D01*
X154549860Y-173761173D01*
X154708096Y-173603489D01*
X154838453Y-173422077D01*
X154846983Y-173404819D01*
X154935136Y-173226453D01*
X154935137Y-173226451D01*
X154937430Y-173221811D01*
X155002370Y-173008069D01*
X155031529Y-172786590D01*
X155033156Y-172720000D01*
X155014852Y-172497361D01*
X154960431Y-172280702D01*
X154871354Y-172075840D01*
X154831906Y-172014862D01*
X154752822Y-171892617D01*
X154752820Y-171892614D01*
X154750014Y-171888277D01*
X154727379Y-171863401D01*
X154602798Y-171726488D01*
X154571746Y-171662642D01*
X154580141Y-171592143D01*
X154625317Y-171537375D01*
X154651761Y-171523706D01*
X154758297Y-171483767D01*
X154766705Y-171480615D01*
X154883261Y-171393261D01*
X154970615Y-171276705D01*
X155021745Y-171140316D01*
X155028500Y-171078134D01*
X155028500Y-169281866D01*
X155021745Y-169219684D01*
X154970615Y-169083295D01*
X154883261Y-168966739D01*
X154766705Y-168879385D01*
X154630316Y-168828255D01*
X154568134Y-168821500D01*
X152771866Y-168821500D01*
X152709684Y-168828255D01*
X152573295Y-168879385D01*
X152456739Y-168966739D01*
X152451358Y-168973919D01*
X152451356Y-168973921D01*
X152425093Y-169008963D01*
X152368234Y-169051478D01*
X152297415Y-169056502D01*
X152235173Y-169022492D01*
X144013770Y-160801089D01*
X144001384Y-160786677D01*
X143992851Y-160775082D01*
X143992846Y-160775077D01*
X143988508Y-160769182D01*
X143957089Y-160742490D01*
X143918126Y-160683142D01*
X143917433Y-160612148D01*
X143924475Y-160593217D01*
X143979959Y-160474230D01*
X143979961Y-160474225D01*
X143982284Y-160469243D01*
X144041543Y-160248087D01*
X144061498Y-160020000D01*
X144041543Y-159791913D01*
X143982284Y-159570757D01*
X143964691Y-159533028D01*
X143887849Y-159368238D01*
X143887846Y-159368233D01*
X143885523Y-159363251D01*
X143754198Y-159175700D01*
X143592300Y-159013802D01*
X143587792Y-159010645D01*
X143587789Y-159010643D01*
X143509611Y-158955902D01*
X143404749Y-158882477D01*
X143399767Y-158880154D01*
X143399762Y-158880151D01*
X143365543Y-158864195D01*
X143312258Y-158817278D01*
X143292797Y-158749001D01*
X143313339Y-158681041D01*
X143365543Y-158635805D01*
X143399762Y-158619849D01*
X143399767Y-158619846D01*
X143404749Y-158617523D01*
X143509611Y-158544098D01*
X143587789Y-158489357D01*
X143587792Y-158489355D01*
X143592300Y-158486198D01*
X143754198Y-158324300D01*
X143885523Y-158136749D01*
X143887846Y-158131767D01*
X143887849Y-158131762D01*
X143979961Y-157934225D01*
X143979961Y-157934224D01*
X143982284Y-157929243D01*
X144041543Y-157708087D01*
X144061498Y-157480000D01*
X144041543Y-157251913D01*
X143982284Y-157030757D01*
X143979961Y-157025775D01*
X143887849Y-156828238D01*
X143887846Y-156828233D01*
X143885523Y-156823251D01*
X143754198Y-156635700D01*
X143592300Y-156473802D01*
X143587792Y-156470645D01*
X143587789Y-156470643D01*
X143509611Y-156415902D01*
X143404749Y-156342477D01*
X143399767Y-156340154D01*
X143399762Y-156340151D01*
X143365543Y-156324195D01*
X143312258Y-156277278D01*
X143292797Y-156209001D01*
X143313339Y-156141041D01*
X143365543Y-156095805D01*
X143399762Y-156079849D01*
X143399767Y-156079846D01*
X143404749Y-156077523D01*
X143509611Y-156004098D01*
X143587789Y-155949357D01*
X143587792Y-155949355D01*
X143592300Y-155946198D01*
X143754198Y-155784300D01*
X143885523Y-155596749D01*
X143887846Y-155591767D01*
X143887849Y-155591762D01*
X143979961Y-155394225D01*
X143979961Y-155394224D01*
X143982284Y-155389243D01*
X144041543Y-155168087D01*
X144061498Y-154940000D01*
X144041543Y-154711913D01*
X143982284Y-154490757D01*
X143979961Y-154485775D01*
X143887849Y-154288238D01*
X143887846Y-154288233D01*
X143885523Y-154283251D01*
X143754198Y-154095700D01*
X143592300Y-153933802D01*
X143587792Y-153930645D01*
X143587789Y-153930643D01*
X143509611Y-153875902D01*
X143404749Y-153802477D01*
X143399767Y-153800154D01*
X143399762Y-153800151D01*
X143365543Y-153784195D01*
X143312258Y-153737278D01*
X143292797Y-153669001D01*
X143313339Y-153601041D01*
X143365543Y-153555805D01*
X143399762Y-153539849D01*
X143399767Y-153539846D01*
X143404749Y-153537523D01*
X143558156Y-153430106D01*
X143587789Y-153409357D01*
X143587792Y-153409355D01*
X143592300Y-153406198D01*
X143754198Y-153244300D01*
X143783468Y-153202499D01*
X143882366Y-153061257D01*
X143885523Y-153056749D01*
X143887846Y-153051767D01*
X143887849Y-153051762D01*
X143979961Y-152854225D01*
X143979961Y-152854224D01*
X143982284Y-152849243D01*
X144041543Y-152628087D01*
X144061498Y-152400000D01*
X144041543Y-152171913D01*
X143982284Y-151950757D01*
X143979961Y-151945775D01*
X143887849Y-151748238D01*
X143887846Y-151748233D01*
X143885523Y-151743251D01*
X143754198Y-151555700D01*
X143592300Y-151393802D01*
X143587792Y-151390645D01*
X143587789Y-151390643D01*
X143509611Y-151335902D01*
X143404749Y-151262477D01*
X143399767Y-151260154D01*
X143399762Y-151260151D01*
X143202225Y-151168039D01*
X143202224Y-151168039D01*
X143197243Y-151165716D01*
X143191935Y-151164294D01*
X143191933Y-151164293D01*
X142981402Y-151107881D01*
X142981400Y-151107881D01*
X142976087Y-151106457D01*
X142748000Y-151086502D01*
X142519913Y-151106457D01*
X142514600Y-151107881D01*
X142514598Y-151107881D01*
X142304067Y-151164293D01*
X142304065Y-151164294D01*
X142298757Y-151165716D01*
X142293776Y-151168039D01*
X142293775Y-151168039D01*
X142096238Y-151260151D01*
X142096233Y-151260154D01*
X142091251Y-151262477D01*
X141986389Y-151335902D01*
X141908211Y-151390643D01*
X141908208Y-151390645D01*
X141903700Y-151393802D01*
X141741802Y-151555700D01*
X141610477Y-151743251D01*
X141608154Y-151748233D01*
X141608151Y-151748238D01*
X141516039Y-151945775D01*
X141513716Y-151950757D01*
X141454457Y-152171913D01*
X141434502Y-152400000D01*
X141454457Y-152628087D01*
X141513716Y-152849243D01*
X141516039Y-152854224D01*
X141516039Y-152854225D01*
X141608151Y-153051762D01*
X141608154Y-153051767D01*
X141610477Y-153056749D01*
X141613634Y-153061257D01*
X141712533Y-153202499D01*
X141741802Y-153244300D01*
X141903700Y-153406198D01*
X141908208Y-153409355D01*
X141908211Y-153409357D01*
X141937844Y-153430106D01*
X142091251Y-153537523D01*
X142096233Y-153539846D01*
X142096238Y-153539849D01*
X142130457Y-153555805D01*
X142183742Y-153602722D01*
X142203203Y-153670999D01*
X142182661Y-153738959D01*
X142130457Y-153784195D01*
X142096238Y-153800151D01*
X142096233Y-153800154D01*
X142091251Y-153802477D01*
X141986389Y-153875902D01*
X141908211Y-153930643D01*
X141908208Y-153930645D01*
X141903700Y-153933802D01*
X141741802Y-154095700D01*
X141610477Y-154283251D01*
X141608154Y-154288233D01*
X141608151Y-154288238D01*
X141516039Y-154485775D01*
X141513716Y-154490757D01*
X141454457Y-154711913D01*
X141434502Y-154940000D01*
X141454457Y-155168087D01*
X141513716Y-155389243D01*
X141516039Y-155394224D01*
X141516039Y-155394225D01*
X141608151Y-155591762D01*
X141608154Y-155591767D01*
X141610477Y-155596749D01*
X141741802Y-155784300D01*
X141903700Y-155946198D01*
X141908208Y-155949355D01*
X141908211Y-155949357D01*
X141986389Y-156004098D01*
X142091251Y-156077523D01*
X142096233Y-156079846D01*
X142096238Y-156079849D01*
X142130457Y-156095805D01*
X142183742Y-156142722D01*
X142203203Y-156210999D01*
X142182661Y-156278959D01*
X142130457Y-156324195D01*
X142096238Y-156340151D01*
X142096233Y-156340154D01*
X142091251Y-156342477D01*
X141986389Y-156415902D01*
X141908211Y-156470643D01*
X141908208Y-156470645D01*
X141903700Y-156473802D01*
X141741802Y-156635700D01*
X141610477Y-156823251D01*
X141608154Y-156828233D01*
X141608151Y-156828238D01*
X141516039Y-157025775D01*
X141513716Y-157030757D01*
X141454457Y-157251913D01*
X141434502Y-157480000D01*
X141454457Y-157708087D01*
X141513716Y-157929243D01*
X141516039Y-157934224D01*
X141516039Y-157934225D01*
X141608151Y-158131762D01*
X141608154Y-158131767D01*
X141610477Y-158136749D01*
X141741802Y-158324300D01*
X141903700Y-158486198D01*
X141908208Y-158489355D01*
X141908211Y-158489357D01*
X141986389Y-158544098D01*
X142091251Y-158617523D01*
X142096233Y-158619846D01*
X142096238Y-158619849D01*
X142130457Y-158635805D01*
X142183742Y-158682722D01*
X142203203Y-158750999D01*
X142182661Y-158818959D01*
X142130457Y-158864195D01*
X142096238Y-158880151D01*
X142096233Y-158880154D01*
X142091251Y-158882477D01*
X141986389Y-158955902D01*
X141908211Y-159010643D01*
X141908208Y-159010645D01*
X141903700Y-159013802D01*
X141741802Y-159175700D01*
X141610477Y-159363251D01*
X141608152Y-159368238D01*
X141608149Y-159368243D01*
X141607354Y-159369947D01*
X141606805Y-159370571D01*
X141605401Y-159373002D01*
X141604912Y-159372720D01*
X141560434Y-159423229D01*
X141492156Y-159442687D01*
X141424197Y-159422142D01*
X141404067Y-159405786D01*
X134605605Y-152607324D01*
X134571579Y-152545012D01*
X134568700Y-152518229D01*
X134568700Y-147320000D01*
X141434502Y-147320000D01*
X141454457Y-147548087D01*
X141513716Y-147769243D01*
X141516039Y-147774224D01*
X141516039Y-147774225D01*
X141608151Y-147971762D01*
X141608154Y-147971767D01*
X141610477Y-147976749D01*
X141741802Y-148164300D01*
X141903700Y-148326198D01*
X141908208Y-148329355D01*
X141908211Y-148329357D01*
X141986389Y-148384098D01*
X142091251Y-148457523D01*
X142096233Y-148459846D01*
X142096238Y-148459849D01*
X142183199Y-148500399D01*
X142298757Y-148554284D01*
X142304065Y-148555706D01*
X142304067Y-148555707D01*
X142514598Y-148612119D01*
X142514600Y-148612119D01*
X142519913Y-148613543D01*
X142748000Y-148633498D01*
X142976087Y-148613543D01*
X142981400Y-148612119D01*
X142981402Y-148612119D01*
X143191933Y-148555707D01*
X143191935Y-148555706D01*
X143197243Y-148554284D01*
X143312801Y-148500399D01*
X143399762Y-148459849D01*
X143399767Y-148459846D01*
X143404749Y-148457523D01*
X143509611Y-148384098D01*
X143587789Y-148329357D01*
X143587792Y-148329355D01*
X143592300Y-148326198D01*
X143754198Y-148164300D01*
X143885523Y-147976749D01*
X143887846Y-147971767D01*
X143887849Y-147971762D01*
X143979961Y-147774225D01*
X143979961Y-147774224D01*
X143982284Y-147769243D01*
X144041543Y-147548087D01*
X144061498Y-147320000D01*
X144041543Y-147091913D01*
X143982284Y-146870757D01*
X143979961Y-146865775D01*
X143887849Y-146668238D01*
X143887846Y-146668233D01*
X143885523Y-146663251D01*
X143754198Y-146475700D01*
X143592300Y-146313802D01*
X143587792Y-146310645D01*
X143587789Y-146310643D01*
X143509611Y-146255902D01*
X143404749Y-146182477D01*
X143399767Y-146180154D01*
X143399762Y-146180151D01*
X143365543Y-146164195D01*
X143312258Y-146117278D01*
X143292797Y-146049001D01*
X143313339Y-145981041D01*
X143365543Y-145935805D01*
X143399762Y-145919849D01*
X143399767Y-145919846D01*
X143404749Y-145917523D01*
X143509611Y-145844098D01*
X143587789Y-145789357D01*
X143587792Y-145789355D01*
X143592300Y-145786198D01*
X143754198Y-145624300D01*
X143885523Y-145436749D01*
X143887846Y-145431767D01*
X143887849Y-145431762D01*
X143979961Y-145234225D01*
X143979961Y-145234224D01*
X143982284Y-145229243D01*
X144041543Y-145008087D01*
X144061498Y-144780000D01*
X144041543Y-144551913D01*
X143982284Y-144330757D01*
X143979961Y-144325775D01*
X143887849Y-144128238D01*
X143887846Y-144128233D01*
X143885523Y-144123251D01*
X143754198Y-143935700D01*
X143592300Y-143773802D01*
X143587792Y-143770645D01*
X143587789Y-143770643D01*
X143509611Y-143715902D01*
X143404749Y-143642477D01*
X143399767Y-143640154D01*
X143399762Y-143640151D01*
X143365543Y-143624195D01*
X143312258Y-143577278D01*
X143292797Y-143509001D01*
X143313339Y-143441041D01*
X143365543Y-143395805D01*
X143399762Y-143379849D01*
X143399767Y-143379846D01*
X143404749Y-143377523D01*
X143544530Y-143279647D01*
X143587789Y-143249357D01*
X143587792Y-143249355D01*
X143592300Y-143246198D01*
X143754198Y-143084300D01*
X143771757Y-143059224D01*
X143882366Y-142901257D01*
X143885523Y-142896749D01*
X143887846Y-142891767D01*
X143887849Y-142891762D01*
X143979961Y-142694225D01*
X143979961Y-142694224D01*
X143982284Y-142689243D01*
X144037867Y-142481808D01*
X144040119Y-142473402D01*
X144040119Y-142473400D01*
X144041543Y-142468087D01*
X144061498Y-142240000D01*
X144041543Y-142011913D01*
X143982284Y-141790757D01*
X143979961Y-141785775D01*
X143887849Y-141588238D01*
X143887846Y-141588233D01*
X143885523Y-141583251D01*
X143754198Y-141395700D01*
X143592300Y-141233802D01*
X143587792Y-141230645D01*
X143587789Y-141230643D01*
X143509611Y-141175902D01*
X143404749Y-141102477D01*
X143399767Y-141100154D01*
X143399762Y-141100151D01*
X143365543Y-141084195D01*
X143312258Y-141037278D01*
X143292797Y-140969001D01*
X143313339Y-140901041D01*
X143365543Y-140855805D01*
X143399762Y-140839849D01*
X143399767Y-140839846D01*
X143404749Y-140837523D01*
X143528902Y-140750590D01*
X143587789Y-140709357D01*
X143587792Y-140709355D01*
X143592300Y-140706198D01*
X143754198Y-140544300D01*
X143778942Y-140508963D01*
X143882366Y-140361257D01*
X143885523Y-140356749D01*
X143887846Y-140351767D01*
X143887849Y-140351762D01*
X143979961Y-140154225D01*
X143979961Y-140154224D01*
X143982284Y-140149243D01*
X144041543Y-139928087D01*
X144061498Y-139700000D01*
X144041543Y-139471913D01*
X143982284Y-139250757D01*
X143979961Y-139245775D01*
X143887849Y-139048238D01*
X143887846Y-139048233D01*
X143885523Y-139043251D01*
X143754198Y-138855700D01*
X143592300Y-138693802D01*
X143587792Y-138690645D01*
X143587789Y-138690643D01*
X143509611Y-138635902D01*
X143404749Y-138562477D01*
X143399767Y-138560154D01*
X143399762Y-138560151D01*
X143202225Y-138468039D01*
X143202224Y-138468039D01*
X143197243Y-138465716D01*
X143191935Y-138464294D01*
X143191933Y-138464293D01*
X142981402Y-138407881D01*
X142981400Y-138407881D01*
X142976087Y-138406457D01*
X142748000Y-138386502D01*
X142519913Y-138406457D01*
X142514600Y-138407881D01*
X142514598Y-138407881D01*
X142304067Y-138464293D01*
X142304065Y-138464294D01*
X142298757Y-138465716D01*
X142293776Y-138468039D01*
X142293775Y-138468039D01*
X142096238Y-138560151D01*
X142096233Y-138560154D01*
X142091251Y-138562477D01*
X141986389Y-138635902D01*
X141908211Y-138690643D01*
X141908208Y-138690645D01*
X141903700Y-138693802D01*
X141741802Y-138855700D01*
X141610477Y-139043251D01*
X141608154Y-139048233D01*
X141608151Y-139048238D01*
X141516039Y-139245775D01*
X141513716Y-139250757D01*
X141454457Y-139471913D01*
X141434502Y-139700000D01*
X141454457Y-139928087D01*
X141513716Y-140149243D01*
X141516039Y-140154224D01*
X141516039Y-140154225D01*
X141608151Y-140351762D01*
X141608154Y-140351767D01*
X141610477Y-140356749D01*
X141613634Y-140361257D01*
X141717059Y-140508963D01*
X141741802Y-140544300D01*
X141903700Y-140706198D01*
X141908208Y-140709355D01*
X141908211Y-140709357D01*
X141967098Y-140750590D01*
X142091251Y-140837523D01*
X142096233Y-140839846D01*
X142096238Y-140839849D01*
X142130457Y-140855805D01*
X142183742Y-140902722D01*
X142203203Y-140970999D01*
X142182661Y-141038959D01*
X142130457Y-141084195D01*
X142096238Y-141100151D01*
X142096233Y-141100154D01*
X142091251Y-141102477D01*
X141986389Y-141175902D01*
X141908211Y-141230643D01*
X141908208Y-141230645D01*
X141903700Y-141233802D01*
X141741802Y-141395700D01*
X141610477Y-141583251D01*
X141608154Y-141588233D01*
X141608151Y-141588238D01*
X141516039Y-141785775D01*
X141513716Y-141790757D01*
X141454457Y-142011913D01*
X141434502Y-142240000D01*
X141454457Y-142468087D01*
X141455881Y-142473400D01*
X141455881Y-142473402D01*
X141458134Y-142481808D01*
X141513716Y-142689243D01*
X141516039Y-142694224D01*
X141516039Y-142694225D01*
X141608151Y-142891762D01*
X141608154Y-142891767D01*
X141610477Y-142896749D01*
X141613634Y-142901257D01*
X141724244Y-143059224D01*
X141741802Y-143084300D01*
X141903700Y-143246198D01*
X141908208Y-143249355D01*
X141908211Y-143249357D01*
X141951470Y-143279647D01*
X142091251Y-143377523D01*
X142096233Y-143379846D01*
X142096238Y-143379849D01*
X142130457Y-143395805D01*
X142183742Y-143442722D01*
X142203203Y-143510999D01*
X142182661Y-143578959D01*
X142130457Y-143624195D01*
X142096238Y-143640151D01*
X142096233Y-143640154D01*
X142091251Y-143642477D01*
X141986389Y-143715902D01*
X141908211Y-143770643D01*
X141908208Y-143770645D01*
X141903700Y-143773802D01*
X141741802Y-143935700D01*
X141610477Y-144123251D01*
X141608154Y-144128233D01*
X141608151Y-144128238D01*
X141516039Y-144325775D01*
X141513716Y-144330757D01*
X141454457Y-144551913D01*
X141434502Y-144780000D01*
X141454457Y-145008087D01*
X141513716Y-145229243D01*
X141516039Y-145234224D01*
X141516039Y-145234225D01*
X141608151Y-145431762D01*
X141608154Y-145431767D01*
X141610477Y-145436749D01*
X141741802Y-145624300D01*
X141903700Y-145786198D01*
X141908208Y-145789355D01*
X141908211Y-145789357D01*
X141986389Y-145844098D01*
X142091251Y-145917523D01*
X142096233Y-145919846D01*
X142096238Y-145919849D01*
X142130457Y-145935805D01*
X142183742Y-145982722D01*
X142203203Y-146050999D01*
X142182661Y-146118959D01*
X142130457Y-146164195D01*
X142096238Y-146180151D01*
X142096233Y-146180154D01*
X142091251Y-146182477D01*
X141986389Y-146255902D01*
X141908211Y-146310643D01*
X141908208Y-146310645D01*
X141903700Y-146313802D01*
X141741802Y-146475700D01*
X141610477Y-146663251D01*
X141608154Y-146668233D01*
X141608151Y-146668238D01*
X141516039Y-146865775D01*
X141513716Y-146870757D01*
X141454457Y-147091913D01*
X141434502Y-147320000D01*
X134568700Y-147320000D01*
X134568700Y-143529269D01*
X134570133Y-143510318D01*
X134570182Y-143510000D01*
X134573399Y-143488851D01*
X134569115Y-143436182D01*
X134568700Y-143425967D01*
X134568700Y-143417907D01*
X134565411Y-143389693D01*
X134564978Y-143385318D01*
X134559654Y-143319861D01*
X134559653Y-143319858D01*
X134559060Y-143312563D01*
X134556804Y-143305599D01*
X134555613Y-143299640D01*
X134554229Y-143293785D01*
X134553382Y-143286519D01*
X134528465Y-143217873D01*
X134527048Y-143213745D01*
X134506807Y-143151264D01*
X134506806Y-143151262D01*
X134504551Y-143144301D01*
X134500755Y-143138046D01*
X134498249Y-143132572D01*
X134495530Y-143127142D01*
X134493033Y-143120263D01*
X134489020Y-143114142D01*
X134453014Y-143059224D01*
X134450667Y-143055505D01*
X134445051Y-143046250D01*
X134412795Y-142993093D01*
X134405397Y-142984716D01*
X134405424Y-142984692D01*
X134402771Y-142981700D01*
X134400068Y-142978467D01*
X134396056Y-142972348D01*
X134339817Y-142919072D01*
X134337375Y-142916694D01*
X126303671Y-134882990D01*
X126269645Y-134820678D01*
X126267245Y-134782913D01*
X126281019Y-134625475D01*
X126281498Y-134620000D01*
X141434502Y-134620000D01*
X141454457Y-134848087D01*
X141513716Y-135069243D01*
X141516039Y-135074224D01*
X141516039Y-135074225D01*
X141608151Y-135271762D01*
X141608154Y-135271767D01*
X141610477Y-135276749D01*
X141741802Y-135464300D01*
X141903700Y-135626198D01*
X141908208Y-135629355D01*
X141908211Y-135629357D01*
X141986389Y-135684098D01*
X142091251Y-135757523D01*
X142096233Y-135759846D01*
X142096238Y-135759849D01*
X142293775Y-135851961D01*
X142298757Y-135854284D01*
X142304065Y-135855706D01*
X142304067Y-135855707D01*
X142514598Y-135912119D01*
X142514600Y-135912119D01*
X142519913Y-135913543D01*
X142748000Y-135933498D01*
X142976087Y-135913543D01*
X142981400Y-135912119D01*
X142981402Y-135912119D01*
X143191933Y-135855707D01*
X143191935Y-135855706D01*
X143197243Y-135854284D01*
X143202225Y-135851961D01*
X143399762Y-135759849D01*
X143399767Y-135759846D01*
X143404749Y-135757523D01*
X143509611Y-135684098D01*
X143587789Y-135629357D01*
X143587792Y-135629355D01*
X143592300Y-135626198D01*
X143754198Y-135464300D01*
X143885523Y-135276749D01*
X143887846Y-135271767D01*
X143887849Y-135271762D01*
X143979961Y-135074225D01*
X143979961Y-135074224D01*
X143982284Y-135069243D01*
X144041543Y-134848087D01*
X144061498Y-134620000D01*
X144041543Y-134391913D01*
X143982284Y-134170757D01*
X143979961Y-134165775D01*
X143887849Y-133968238D01*
X143887846Y-133968233D01*
X143885523Y-133963251D01*
X143754198Y-133775700D01*
X143592300Y-133613802D01*
X143587792Y-133610645D01*
X143587789Y-133610643D01*
X143509611Y-133555902D01*
X143404749Y-133482477D01*
X143399767Y-133480154D01*
X143399762Y-133480151D01*
X143365543Y-133464195D01*
X143312258Y-133417278D01*
X143292797Y-133349001D01*
X143313339Y-133281041D01*
X143365543Y-133235805D01*
X143399762Y-133219849D01*
X143399767Y-133219846D01*
X143404749Y-133217523D01*
X143509611Y-133144098D01*
X143587789Y-133089357D01*
X143587792Y-133089355D01*
X143592300Y-133086198D01*
X143754198Y-132924300D01*
X143885523Y-132736749D01*
X143887846Y-132731767D01*
X143887849Y-132731762D01*
X143979961Y-132534225D01*
X143979961Y-132534224D01*
X143982284Y-132529243D01*
X144041543Y-132308087D01*
X144061498Y-132080000D01*
X144041543Y-131851913D01*
X144017574Y-131762460D01*
X144003017Y-131708134D01*
X152311500Y-131708134D01*
X152318255Y-131770316D01*
X152369385Y-131906705D01*
X152456739Y-132023261D01*
X152573295Y-132110615D01*
X152709684Y-132161745D01*
X152771866Y-132168500D01*
X154568134Y-132168500D01*
X154630316Y-132161745D01*
X154766705Y-132110615D01*
X154883261Y-132023261D01*
X154970615Y-131906705D01*
X155021745Y-131770316D01*
X155028500Y-131708134D01*
X155028500Y-129911866D01*
X155021745Y-129849684D01*
X154970615Y-129713295D01*
X154883261Y-129596739D01*
X154766705Y-129509385D01*
X154630316Y-129458255D01*
X154568134Y-129451500D01*
X152771866Y-129451500D01*
X152709684Y-129458255D01*
X152573295Y-129509385D01*
X152456739Y-129596739D01*
X152369385Y-129713295D01*
X152318255Y-129849684D01*
X152311500Y-129911866D01*
X152311500Y-131708134D01*
X144003017Y-131708134D01*
X143983707Y-131636067D01*
X143983706Y-131636065D01*
X143982284Y-131630757D01*
X143979961Y-131625775D01*
X143887849Y-131428238D01*
X143887846Y-131428233D01*
X143885523Y-131423251D01*
X143754198Y-131235700D01*
X143592300Y-131073802D01*
X143587792Y-131070645D01*
X143587789Y-131070643D01*
X143509611Y-131015902D01*
X143404749Y-130942477D01*
X143399767Y-130940154D01*
X143399762Y-130940151D01*
X143202225Y-130848039D01*
X143202224Y-130848039D01*
X143197243Y-130845716D01*
X143191935Y-130844294D01*
X143191933Y-130844293D01*
X142981402Y-130787881D01*
X142981400Y-130787881D01*
X142976087Y-130786457D01*
X142748000Y-130766502D01*
X142519913Y-130786457D01*
X142514600Y-130787881D01*
X142514598Y-130787881D01*
X142304067Y-130844293D01*
X142304065Y-130844294D01*
X142298757Y-130845716D01*
X142293776Y-130848039D01*
X142293775Y-130848039D01*
X142096238Y-130940151D01*
X142096233Y-130940154D01*
X142091251Y-130942477D01*
X141986389Y-131015902D01*
X141908211Y-131070643D01*
X141908208Y-131070645D01*
X141903700Y-131073802D01*
X141741802Y-131235700D01*
X141610477Y-131423251D01*
X141608154Y-131428233D01*
X141608151Y-131428238D01*
X141516039Y-131625775D01*
X141513716Y-131630757D01*
X141512294Y-131636065D01*
X141512293Y-131636067D01*
X141478426Y-131762460D01*
X141454457Y-131851913D01*
X141434502Y-132080000D01*
X141454457Y-132308087D01*
X141513716Y-132529243D01*
X141516039Y-132534224D01*
X141516039Y-132534225D01*
X141608151Y-132731762D01*
X141608154Y-132731767D01*
X141610477Y-132736749D01*
X141741802Y-132924300D01*
X141903700Y-133086198D01*
X141908208Y-133089355D01*
X141908211Y-133089357D01*
X141986389Y-133144098D01*
X142091251Y-133217523D01*
X142096233Y-133219846D01*
X142096238Y-133219849D01*
X142130457Y-133235805D01*
X142183742Y-133282722D01*
X142203203Y-133350999D01*
X142182661Y-133418959D01*
X142130457Y-133464195D01*
X142096238Y-133480151D01*
X142096233Y-133480154D01*
X142091251Y-133482477D01*
X141986389Y-133555902D01*
X141908211Y-133610643D01*
X141908208Y-133610645D01*
X141903700Y-133613802D01*
X141741802Y-133775700D01*
X141610477Y-133963251D01*
X141608154Y-133968233D01*
X141608151Y-133968238D01*
X141516039Y-134165775D01*
X141513716Y-134170757D01*
X141454457Y-134391913D01*
X141434502Y-134620000D01*
X126281498Y-134620000D01*
X126261543Y-134391913D01*
X126202284Y-134170757D01*
X126199961Y-134165775D01*
X126107849Y-133968238D01*
X126107846Y-133968233D01*
X126105523Y-133963251D01*
X125974198Y-133775700D01*
X125812300Y-133613802D01*
X125807792Y-133610645D01*
X125807789Y-133610643D01*
X125729611Y-133555902D01*
X125624749Y-133482477D01*
X125619767Y-133480154D01*
X125619762Y-133480151D01*
X125585543Y-133464195D01*
X125532258Y-133417278D01*
X125512797Y-133349001D01*
X125533339Y-133281041D01*
X125585543Y-133235805D01*
X125619762Y-133219849D01*
X125619767Y-133219846D01*
X125624749Y-133217523D01*
X125729611Y-133144098D01*
X125807789Y-133089357D01*
X125807792Y-133089355D01*
X125812300Y-133086198D01*
X125974198Y-132924300D01*
X126105523Y-132736749D01*
X126107846Y-132731767D01*
X126107849Y-132731762D01*
X126199961Y-132534225D01*
X126199961Y-132534224D01*
X126202284Y-132529243D01*
X126261543Y-132308087D01*
X126281498Y-132080000D01*
X126261543Y-131851913D01*
X126237574Y-131762460D01*
X126203707Y-131636067D01*
X126203706Y-131636065D01*
X126202284Y-131630757D01*
X126199961Y-131625775D01*
X126107849Y-131428238D01*
X126107846Y-131428233D01*
X126105523Y-131423251D01*
X125974198Y-131235700D01*
X125812300Y-131073802D01*
X125807792Y-131070645D01*
X125807789Y-131070643D01*
X125729611Y-131015902D01*
X125624749Y-130942477D01*
X125619767Y-130940154D01*
X125619762Y-130940151D01*
X125422225Y-130848039D01*
X125422224Y-130848039D01*
X125417243Y-130845716D01*
X125411935Y-130844294D01*
X125411933Y-130844293D01*
X125201402Y-130787881D01*
X125201400Y-130787881D01*
X125196087Y-130786457D01*
X124968000Y-130766502D01*
X124739913Y-130786457D01*
X124734600Y-130787881D01*
X124734598Y-130787881D01*
X124524067Y-130844293D01*
X124524065Y-130844294D01*
X124518757Y-130845716D01*
X124513776Y-130848039D01*
X124513775Y-130848039D01*
X124316238Y-130940151D01*
X124316233Y-130940154D01*
X124311251Y-130942477D01*
X124206389Y-131015902D01*
X124128211Y-131070643D01*
X124128208Y-131070645D01*
X124123700Y-131073802D01*
X123961802Y-131235700D01*
X123830477Y-131423251D01*
X123828154Y-131428233D01*
X123828151Y-131428238D01*
X123736039Y-131625775D01*
X123733716Y-131630757D01*
X123732294Y-131636065D01*
X123732293Y-131636067D01*
X123698426Y-131762460D01*
X123674457Y-131851913D01*
X123654502Y-132080000D01*
X123654981Y-132085475D01*
X123668755Y-132242913D01*
X123654766Y-132312518D01*
X123632329Y-132342990D01*
X113811089Y-142164230D01*
X113796677Y-142176616D01*
X113785082Y-142185149D01*
X113785077Y-142185154D01*
X113779182Y-142189492D01*
X113774443Y-142195070D01*
X113774440Y-142195073D01*
X113744965Y-142229768D01*
X113738035Y-142237284D01*
X113732340Y-142242979D01*
X113730060Y-142245861D01*
X113714719Y-142265251D01*
X113711928Y-142268655D01*
X113669409Y-142318703D01*
X113664667Y-142324285D01*
X113661339Y-142330801D01*
X113657972Y-142335850D01*
X113654805Y-142340979D01*
X113650266Y-142346716D01*
X113619345Y-142412875D01*
X113617442Y-142416769D01*
X113584231Y-142481808D01*
X113582492Y-142488916D01*
X113580393Y-142494559D01*
X113578476Y-142500322D01*
X113575378Y-142506950D01*
X113573888Y-142514112D01*
X113573888Y-142514113D01*
X113560514Y-142578412D01*
X113559544Y-142582696D01*
X113542192Y-142653610D01*
X113541500Y-142664764D01*
X113541464Y-142664762D01*
X113541225Y-142668755D01*
X113540851Y-142672947D01*
X113539360Y-142680115D01*
X113539558Y-142687432D01*
X113541454Y-142757521D01*
X113541500Y-142760928D01*
X113541500Y-168700500D01*
X113521498Y-168768621D01*
X113467842Y-168815114D01*
X113415500Y-168826500D01*
X113401866Y-168826500D01*
X113339684Y-168833255D01*
X113203295Y-168884385D01*
X113086739Y-168971739D01*
X112999385Y-169088295D01*
X112948255Y-169224684D01*
X112941500Y-169286866D01*
X112941500Y-171083134D01*
X112948255Y-171145316D01*
X112999385Y-171281705D01*
X113086739Y-171398261D01*
X113203295Y-171485615D01*
X113211704Y-171488767D01*
X113211705Y-171488768D01*
X113320451Y-171529535D01*
X113377216Y-171572176D01*
X113401916Y-171638738D01*
X113386709Y-171708087D01*
X113367316Y-171734568D01*
X113240629Y-171867138D01*
X113237715Y-171871410D01*
X113237714Y-171871411D01*
X113152556Y-171996249D01*
X113114743Y-172051680D01*
X113067715Y-172152993D01*
X113024773Y-172245505D01*
X113020688Y-172254305D01*
X112960989Y-172469570D01*
X112937251Y-172691695D01*
X112937548Y-172696848D01*
X112937548Y-172696851D01*
X112943454Y-172799272D01*
X112950110Y-172914715D01*
X112951247Y-172919761D01*
X112951248Y-172919767D01*
X112972265Y-173013023D01*
X112999222Y-173132639D01*
X113048752Y-173254617D01*
X113076876Y-173323878D01*
X113083266Y-173339616D01*
X113099808Y-173366610D01*
X113197234Y-173525595D01*
X113199987Y-173530088D01*
X113346250Y-173698938D01*
X113421213Y-173761173D01*
X113508123Y-173833327D01*
X113518126Y-173841632D01*
X113582889Y-173879476D01*
X113591445Y-173884476D01*
X113640169Y-173936114D01*
X113653240Y-174005897D01*
X113626509Y-174071669D01*
X113586055Y-174105027D01*
X113573607Y-174111507D01*
X113569474Y-174114610D01*
X113569471Y-174114612D01*
X113401624Y-174240635D01*
X113394965Y-174245635D01*
X113240629Y-174407138D01*
X113237715Y-174411410D01*
X113237714Y-174411411D01*
X113152556Y-174536249D01*
X113114743Y-174591680D01*
X113067715Y-174692993D01*
X113024773Y-174785505D01*
X113020688Y-174794305D01*
X112960989Y-175009570D01*
X112937251Y-175231695D01*
X112937548Y-175236848D01*
X112937548Y-175236851D01*
X112942914Y-175329908D01*
X112950110Y-175454715D01*
X112951247Y-175459761D01*
X112951248Y-175459767D01*
X112972265Y-175553023D01*
X112999222Y-175672639D01*
X113048752Y-175794617D01*
X113076876Y-175863878D01*
X113083266Y-175879616D01*
X113099808Y-175906610D01*
X113197234Y-176065595D01*
X113199987Y-176070088D01*
X113346250Y-176238938D01*
X113421213Y-176301173D01*
X113508123Y-176373327D01*
X113518126Y-176381632D01*
X113582889Y-176419476D01*
X113591445Y-176424476D01*
X113640169Y-176476114D01*
X113653240Y-176545897D01*
X113626509Y-176611669D01*
X113586055Y-176645027D01*
X113573607Y-176651507D01*
X113569474Y-176654610D01*
X113569471Y-176654612D01*
X113401624Y-176780635D01*
X113394965Y-176785635D01*
X113240629Y-176947138D01*
X113237715Y-176951410D01*
X113237714Y-176951411D01*
X113152556Y-177076249D01*
X113114743Y-177131680D01*
X113067716Y-177232992D01*
X113024773Y-177325505D01*
X113020688Y-177334305D01*
X112960989Y-177549570D01*
X112937251Y-177771695D01*
X112937548Y-177776848D01*
X112937548Y-177776851D01*
X112942914Y-177869908D01*
X112950110Y-177994715D01*
X112951247Y-177999761D01*
X112951248Y-177999767D01*
X112972265Y-178093023D01*
X112999222Y-178212639D01*
X113048752Y-178334617D01*
X113076876Y-178403878D01*
X113083266Y-178419616D01*
X113099808Y-178446610D01*
X113197234Y-178605595D01*
X113199987Y-178610088D01*
X113346250Y-178778938D01*
X113421213Y-178841173D01*
X113508123Y-178913327D01*
X113518126Y-178921632D01*
X113549301Y-178939849D01*
X113591445Y-178964476D01*
X113640169Y-179016114D01*
X113653240Y-179085897D01*
X113626509Y-179151669D01*
X113586055Y-179185027D01*
X113573607Y-179191507D01*
X113569474Y-179194610D01*
X113569471Y-179194612D01*
X113401624Y-179320635D01*
X113394965Y-179325635D01*
X113240629Y-179487138D01*
X113114743Y-179671680D01*
X113020688Y-179874305D01*
X112960989Y-180089570D01*
X112937251Y-180311695D01*
X108585000Y-180311695D01*
X108585000Y-131708134D01*
X110401500Y-131708134D01*
X110408255Y-131770316D01*
X110459385Y-131906705D01*
X110546739Y-132023261D01*
X110663295Y-132110615D01*
X110799684Y-132161745D01*
X110861866Y-132168500D01*
X112658134Y-132168500D01*
X112720316Y-132161745D01*
X112856705Y-132110615D01*
X112973261Y-132023261D01*
X113060615Y-131906705D01*
X113111745Y-131770316D01*
X113118500Y-131708134D01*
X113118500Y-129911866D01*
X113111745Y-129849684D01*
X113060615Y-129713295D01*
X112973261Y-129596739D01*
X112856705Y-129509385D01*
X112720316Y-129458255D01*
X112658134Y-129451500D01*
X110861866Y-129451500D01*
X110799684Y-129458255D01*
X110663295Y-129509385D01*
X110546739Y-129596739D01*
X110459385Y-129713295D01*
X110408255Y-129849684D01*
X110401500Y-129911866D01*
X110401500Y-131708134D01*
X108585000Y-131708134D01*
X108585000Y-127761000D01*
X108605002Y-127692879D01*
X108658658Y-127646386D01*
X108711000Y-127635000D01*
X159259000Y-127635000D01*
X159327121Y-127655002D01*
G37*
%TD.AperFunction*%
%TA.AperFunction,Conductor*%
G36*
X129076566Y-174748842D02*
G01*
X129137898Y-174752647D01*
X129150860Y-174750420D01*
X129172196Y-174748600D01*
X150683729Y-174748600D01*
X150751850Y-174768602D01*
X150772824Y-174785505D01*
X151736230Y-175748911D01*
X151748616Y-175763323D01*
X151757149Y-175774918D01*
X151757154Y-175774923D01*
X151761492Y-175780818D01*
X151767070Y-175785557D01*
X151767073Y-175785560D01*
X151801768Y-175815035D01*
X151809284Y-175821965D01*
X151814980Y-175827661D01*
X151817841Y-175829924D01*
X151817846Y-175829929D01*
X151837266Y-175845293D01*
X151840667Y-175848082D01*
X151896285Y-175895333D01*
X151902798Y-175898659D01*
X151907837Y-175902020D01*
X151912979Y-175905196D01*
X151918716Y-175909734D01*
X151984875Y-175940655D01*
X151988769Y-175942558D01*
X152053808Y-175975769D01*
X152060917Y-175977508D01*
X152066551Y-175979604D01*
X152072321Y-175981523D01*
X152078950Y-175984622D01*
X152086113Y-175986112D01*
X152086116Y-175986113D01*
X152136830Y-175996661D01*
X152150435Y-175999491D01*
X152154701Y-176000457D01*
X152225610Y-176017808D01*
X152231212Y-176018156D01*
X152231215Y-176018156D01*
X152236764Y-176018500D01*
X152236762Y-176018535D01*
X152240734Y-176018775D01*
X152244955Y-176019152D01*
X152252115Y-176020641D01*
X152329542Y-176018546D01*
X152332950Y-176018500D01*
X152472491Y-176018500D01*
X152540612Y-176038502D01*
X152569402Y-176065595D01*
X152569987Y-176065088D01*
X152716250Y-176233938D01*
X152888126Y-176376632D01*
X152896683Y-176381632D01*
X152961445Y-176419476D01*
X153010169Y-176471114D01*
X153023240Y-176540897D01*
X152996509Y-176606669D01*
X152956055Y-176640027D01*
X152943607Y-176646507D01*
X152939474Y-176649610D01*
X152939471Y-176649612D01*
X152769100Y-176777530D01*
X152764965Y-176780635D01*
X152739894Y-176806870D01*
X152662633Y-176887719D01*
X152601108Y-176923149D01*
X152530196Y-176919692D01*
X152482444Y-176889763D01*
X151633870Y-176041189D01*
X151621484Y-176026777D01*
X151612951Y-176015182D01*
X151612946Y-176015177D01*
X151608608Y-176009282D01*
X151603030Y-176004543D01*
X151603027Y-176004540D01*
X151568332Y-175975065D01*
X151560816Y-175968135D01*
X151555121Y-175962440D01*
X151536658Y-175947833D01*
X151532849Y-175944819D01*
X151529445Y-175942028D01*
X151479397Y-175899509D01*
X151479395Y-175899508D01*
X151473815Y-175894767D01*
X151467299Y-175891439D01*
X151462250Y-175888072D01*
X151457121Y-175884905D01*
X151451384Y-175880366D01*
X151385225Y-175849445D01*
X151381325Y-175847539D01*
X151316292Y-175814331D01*
X151309184Y-175812592D01*
X151303541Y-175810493D01*
X151297778Y-175808576D01*
X151291150Y-175805478D01*
X151219683Y-175790613D01*
X151215399Y-175789643D01*
X151144490Y-175772292D01*
X151138888Y-175771944D01*
X151138885Y-175771944D01*
X151133336Y-175771600D01*
X151133338Y-175771564D01*
X151129345Y-175771325D01*
X151125153Y-175770951D01*
X151117985Y-175769460D01*
X151054220Y-175771185D01*
X151040579Y-175771554D01*
X151037172Y-175771600D01*
X128324887Y-175771600D01*
X128250828Y-175747537D01*
X128244398Y-175742865D01*
X128244391Y-175742861D01*
X128239052Y-175738982D01*
X128233024Y-175736298D01*
X128233022Y-175736297D01*
X128070619Y-175663991D01*
X128070618Y-175663991D01*
X128064588Y-175661306D01*
X127971188Y-175641453D01*
X127884244Y-175622972D01*
X127884239Y-175622972D01*
X127877787Y-175621600D01*
X127686813Y-175621600D01*
X127680361Y-175622972D01*
X127680356Y-175622972D01*
X127593412Y-175641453D01*
X127500012Y-175661306D01*
X127493982Y-175663991D01*
X127493981Y-175663991D01*
X127331578Y-175736297D01*
X127331576Y-175736298D01*
X127325548Y-175738982D01*
X127320209Y-175742861D01*
X127320202Y-175742865D01*
X127313772Y-175747537D01*
X127239713Y-175771600D01*
X116991970Y-175771600D01*
X116973020Y-175770167D01*
X116958785Y-175768001D01*
X116958781Y-175768001D01*
X116951551Y-175766901D01*
X116944259Y-175767494D01*
X116944256Y-175767494D01*
X116898882Y-175771185D01*
X116888667Y-175771600D01*
X116880607Y-175771600D01*
X116876973Y-175772024D01*
X116876967Y-175772024D01*
X116863942Y-175773543D01*
X116852380Y-175774891D01*
X116848032Y-175775321D01*
X116775264Y-175781240D01*
X116768303Y-175783495D01*
X116762363Y-175784682D01*
X116756488Y-175786071D01*
X116749219Y-175786918D01*
X116680570Y-175811836D01*
X116676442Y-175813253D01*
X116613964Y-175833493D01*
X116613962Y-175833494D01*
X116607001Y-175835749D01*
X116600746Y-175839545D01*
X116595272Y-175842051D01*
X116589842Y-175844770D01*
X116582963Y-175847267D01*
X116576843Y-175851280D01*
X116576842Y-175851280D01*
X116521924Y-175887286D01*
X116518220Y-175889623D01*
X116455793Y-175927505D01*
X116447416Y-175934903D01*
X116447392Y-175934876D01*
X116444400Y-175937529D01*
X116441167Y-175940232D01*
X116435048Y-175944244D01*
X116408338Y-175972440D01*
X116381772Y-176000483D01*
X116379394Y-176002925D01*
X115487240Y-176895079D01*
X115424928Y-176929105D01*
X115354113Y-176924040D01*
X115304951Y-176890783D01*
X115233151Y-176811876D01*
X115233148Y-176811873D01*
X115229670Y-176808051D01*
X115225619Y-176804852D01*
X115225615Y-176804848D01*
X115058414Y-176672800D01*
X115058410Y-176672798D01*
X115054359Y-176669598D01*
X115013053Y-176646796D01*
X114963084Y-176596364D01*
X114948312Y-176526921D01*
X114973428Y-176460516D01*
X115000780Y-176433909D01*
X115044603Y-176402650D01*
X115179860Y-176306173D01*
X115338096Y-176148489D01*
X115390203Y-176075974D01*
X115446198Y-176032326D01*
X115492526Y-176023500D01*
X115582930Y-176023500D01*
X115601880Y-176024933D01*
X115616115Y-176027099D01*
X115616119Y-176027099D01*
X115623349Y-176028199D01*
X115630641Y-176027606D01*
X115630644Y-176027606D01*
X115676018Y-176023915D01*
X115686233Y-176023500D01*
X115694293Y-176023500D01*
X115707583Y-176021951D01*
X115722507Y-176020211D01*
X115726882Y-176019778D01*
X115792339Y-176014454D01*
X115792342Y-176014453D01*
X115799637Y-176013860D01*
X115806601Y-176011604D01*
X115812560Y-176010413D01*
X115818415Y-176009029D01*
X115825681Y-176008182D01*
X115894327Y-175983265D01*
X115898455Y-175981848D01*
X115960936Y-175961607D01*
X115960938Y-175961606D01*
X115967899Y-175959351D01*
X115974154Y-175955555D01*
X115979628Y-175953049D01*
X115985058Y-175950330D01*
X115991937Y-175947833D01*
X116007653Y-175937529D01*
X116052976Y-175907814D01*
X116056680Y-175905477D01*
X116119107Y-175867595D01*
X116127484Y-175860197D01*
X116127508Y-175860224D01*
X116130500Y-175857571D01*
X116133733Y-175854868D01*
X116139852Y-175850856D01*
X116193128Y-175794617D01*
X116195506Y-175792175D01*
X117202176Y-174785505D01*
X117264488Y-174751479D01*
X117291271Y-174748600D01*
X129068765Y-174748600D01*
X129076566Y-174748842D01*
G37*
%TD.AperFunction*%
%TA.AperFunction,Conductor*%
G36*
X123584188Y-134640659D02*
G01*
X123641024Y-134683206D01*
X123665677Y-134747733D01*
X123674457Y-134848087D01*
X123733716Y-135069243D01*
X123736039Y-135074224D01*
X123736039Y-135074225D01*
X123828151Y-135271762D01*
X123828154Y-135271767D01*
X123830477Y-135276749D01*
X123961802Y-135464300D01*
X124123700Y-135626198D01*
X124128208Y-135629355D01*
X124128211Y-135629357D01*
X124206389Y-135684098D01*
X124311251Y-135757523D01*
X124316233Y-135759846D01*
X124316238Y-135759849D01*
X124513775Y-135851961D01*
X124518757Y-135854284D01*
X124524065Y-135855706D01*
X124524067Y-135855707D01*
X124734598Y-135912119D01*
X124734600Y-135912119D01*
X124739913Y-135913543D01*
X124968000Y-135933498D01*
X124973475Y-135933019D01*
X125130913Y-135919245D01*
X125200518Y-135933234D01*
X125230990Y-135955671D01*
X133014795Y-143739476D01*
X133048821Y-143801788D01*
X133051700Y-143828571D01*
X133051700Y-152817530D01*
X133050267Y-152836480D01*
X133047001Y-152857949D01*
X133047594Y-152865241D01*
X133047594Y-152865244D01*
X133051285Y-152910618D01*
X133051700Y-152920833D01*
X133051700Y-152928893D01*
X133052125Y-152932537D01*
X133054989Y-152957107D01*
X133055422Y-152961482D01*
X133061340Y-153034237D01*
X133063596Y-153041201D01*
X133064787Y-153047160D01*
X133066171Y-153053015D01*
X133067018Y-153060281D01*
X133091935Y-153128927D01*
X133093352Y-153133055D01*
X133115849Y-153202499D01*
X133119645Y-153208754D01*
X133122151Y-153214228D01*
X133124870Y-153219658D01*
X133127367Y-153226537D01*
X133131380Y-153232657D01*
X133131380Y-153232658D01*
X133167386Y-153287576D01*
X133169723Y-153291280D01*
X133207605Y-153353707D01*
X133211321Y-153357915D01*
X133211322Y-153357916D01*
X133215003Y-153362084D01*
X133214976Y-153362108D01*
X133217629Y-153365100D01*
X133220332Y-153368333D01*
X133224344Y-153374452D01*
X133229656Y-153379484D01*
X133280583Y-153427728D01*
X133283025Y-153430106D01*
X141631830Y-161778911D01*
X141644216Y-161793323D01*
X141652749Y-161804918D01*
X141652754Y-161804923D01*
X141657092Y-161810818D01*
X141662670Y-161815557D01*
X141662673Y-161815560D01*
X141697368Y-161845035D01*
X141704884Y-161851965D01*
X141710580Y-161857661D01*
X141713441Y-161859924D01*
X141713446Y-161859929D01*
X141732866Y-161875293D01*
X141736267Y-161878082D01*
X141791885Y-161925333D01*
X141798398Y-161928659D01*
X141803437Y-161932020D01*
X141808579Y-161935196D01*
X141814316Y-161939734D01*
X141880475Y-161970655D01*
X141884369Y-161972558D01*
X141949408Y-162005769D01*
X141956517Y-162007508D01*
X141962151Y-162009604D01*
X141967921Y-162011523D01*
X141974550Y-162014622D01*
X141981713Y-162016112D01*
X141981716Y-162016113D01*
X142032430Y-162026661D01*
X142046035Y-162029491D01*
X142050301Y-162030457D01*
X142121210Y-162047808D01*
X142126812Y-162048156D01*
X142126815Y-162048156D01*
X142132364Y-162048500D01*
X142132362Y-162048535D01*
X142136334Y-162048775D01*
X142140555Y-162049152D01*
X142147715Y-162050641D01*
X142225142Y-162048546D01*
X142228550Y-162048500D01*
X143063629Y-162048500D01*
X143131750Y-162068502D01*
X143152724Y-162085405D01*
X151736230Y-170668911D01*
X151748616Y-170683323D01*
X151757149Y-170694918D01*
X151757154Y-170694923D01*
X151761492Y-170700818D01*
X151767070Y-170705557D01*
X151767073Y-170705560D01*
X151801768Y-170735035D01*
X151809284Y-170741965D01*
X151814980Y-170747661D01*
X151817841Y-170749924D01*
X151817846Y-170749929D01*
X151837256Y-170765285D01*
X151840658Y-170768074D01*
X151889576Y-170809633D01*
X151896285Y-170815333D01*
X151902802Y-170818661D01*
X151907850Y-170822027D01*
X151912972Y-170825190D01*
X151918716Y-170829735D01*
X151984895Y-170860664D01*
X151988779Y-170862563D01*
X152053808Y-170895769D01*
X152060923Y-170897510D01*
X152066578Y-170899613D01*
X152072317Y-170901522D01*
X152078950Y-170904622D01*
X152150435Y-170919491D01*
X152154713Y-170920460D01*
X152215448Y-170935321D01*
X152276862Y-170970940D01*
X152309270Y-171034109D01*
X152311500Y-171057710D01*
X152311500Y-171078134D01*
X152318255Y-171140316D01*
X152369385Y-171276705D01*
X152456739Y-171393261D01*
X152573295Y-171480615D01*
X152581704Y-171483767D01*
X152581705Y-171483768D01*
X152690451Y-171524535D01*
X152747216Y-171567176D01*
X152771916Y-171633738D01*
X152756709Y-171703087D01*
X152737316Y-171729568D01*
X152662633Y-171807719D01*
X152601108Y-171843149D01*
X152530196Y-171839692D01*
X152482444Y-171809763D01*
X151633870Y-170961189D01*
X151621484Y-170946777D01*
X151612951Y-170935182D01*
X151612946Y-170935177D01*
X151608608Y-170929282D01*
X151603030Y-170924543D01*
X151603027Y-170924540D01*
X151568332Y-170895065D01*
X151560816Y-170888135D01*
X151555121Y-170882440D01*
X151538836Y-170869556D01*
X151532849Y-170864819D01*
X151529445Y-170862028D01*
X151479397Y-170819509D01*
X151479395Y-170819508D01*
X151473815Y-170814767D01*
X151467299Y-170811439D01*
X151462250Y-170808072D01*
X151457121Y-170804905D01*
X151451384Y-170800366D01*
X151385225Y-170769445D01*
X151381325Y-170767539D01*
X151316292Y-170734331D01*
X151309184Y-170732592D01*
X151303541Y-170730493D01*
X151297778Y-170728576D01*
X151291150Y-170725478D01*
X151219683Y-170710613D01*
X151215399Y-170709643D01*
X151144490Y-170692292D01*
X151138888Y-170691944D01*
X151138885Y-170691944D01*
X151133336Y-170691600D01*
X151133338Y-170691564D01*
X151129345Y-170691325D01*
X151125153Y-170690951D01*
X151117985Y-170689460D01*
X151054220Y-170691185D01*
X151040579Y-170691554D01*
X151037172Y-170691600D01*
X144129782Y-170691600D01*
X144061661Y-170671598D01*
X144015168Y-170617942D01*
X144005064Y-170547668D01*
X144008073Y-170532998D01*
X144041543Y-170408087D01*
X144061498Y-170180000D01*
X144041543Y-169951913D01*
X143982284Y-169730757D01*
X143979961Y-169725775D01*
X143887849Y-169528238D01*
X143887846Y-169528233D01*
X143885523Y-169523251D01*
X143754198Y-169335700D01*
X143592300Y-169173802D01*
X143587792Y-169170645D01*
X143587789Y-169170643D01*
X143509611Y-169115902D01*
X143404749Y-169042477D01*
X143399767Y-169040154D01*
X143399762Y-169040151D01*
X143365543Y-169024195D01*
X143312258Y-168977278D01*
X143292797Y-168909001D01*
X143313339Y-168841041D01*
X143365543Y-168795805D01*
X143399762Y-168779849D01*
X143399767Y-168779846D01*
X143404749Y-168777523D01*
X143514749Y-168700500D01*
X143587789Y-168649357D01*
X143587792Y-168649355D01*
X143592300Y-168646198D01*
X143754198Y-168484300D01*
X143885523Y-168296749D01*
X143887846Y-168291767D01*
X143887849Y-168291762D01*
X143979961Y-168094225D01*
X143979961Y-168094224D01*
X143982284Y-168089243D01*
X144041543Y-167868087D01*
X144061498Y-167640000D01*
X144041543Y-167411913D01*
X143982284Y-167190757D01*
X143979961Y-167185775D01*
X143887849Y-166988238D01*
X143887846Y-166988233D01*
X143885523Y-166983251D01*
X143754198Y-166795700D01*
X143592300Y-166633802D01*
X143587792Y-166630645D01*
X143587789Y-166630643D01*
X143509611Y-166575902D01*
X143404749Y-166502477D01*
X143399767Y-166500154D01*
X143399762Y-166500151D01*
X143365543Y-166484195D01*
X143312258Y-166437278D01*
X143292797Y-166369001D01*
X143313339Y-166301041D01*
X143365543Y-166255805D01*
X143399762Y-166239849D01*
X143399767Y-166239846D01*
X143404749Y-166237523D01*
X143509611Y-166164098D01*
X143587789Y-166109357D01*
X143587792Y-166109355D01*
X143592300Y-166106198D01*
X143754198Y-165944300D01*
X143885523Y-165756749D01*
X143887846Y-165751767D01*
X143887849Y-165751762D01*
X143979961Y-165554225D01*
X143979961Y-165554224D01*
X143982284Y-165549243D01*
X144041543Y-165328087D01*
X144061498Y-165100000D01*
X144041543Y-164871913D01*
X143982284Y-164650757D01*
X143979961Y-164645775D01*
X143887849Y-164448238D01*
X143887846Y-164448233D01*
X143885523Y-164443251D01*
X143754198Y-164255700D01*
X143592300Y-164093802D01*
X143587792Y-164090645D01*
X143587789Y-164090643D01*
X143509611Y-164035902D01*
X143404749Y-163962477D01*
X143399767Y-163960154D01*
X143399762Y-163960151D01*
X143202225Y-163868039D01*
X143202224Y-163868039D01*
X143197243Y-163865716D01*
X143191935Y-163864294D01*
X143191933Y-163864293D01*
X142981402Y-163807881D01*
X142981400Y-163807881D01*
X142976087Y-163806457D01*
X142748000Y-163786502D01*
X142519913Y-163806457D01*
X142514600Y-163807881D01*
X142514598Y-163807881D01*
X142304067Y-163864293D01*
X142304065Y-163864294D01*
X142298757Y-163865716D01*
X142293776Y-163868039D01*
X142293775Y-163868039D01*
X142096238Y-163960151D01*
X142096233Y-163960154D01*
X142091251Y-163962477D01*
X141986389Y-164035902D01*
X141908211Y-164090643D01*
X141908208Y-164090645D01*
X141903700Y-164093802D01*
X141741802Y-164255700D01*
X141610477Y-164443251D01*
X141608154Y-164448233D01*
X141608151Y-164448238D01*
X141516039Y-164645775D01*
X141513716Y-164650757D01*
X141454457Y-164871913D01*
X141434502Y-165100000D01*
X141454457Y-165328087D01*
X141513716Y-165549243D01*
X141516039Y-165554224D01*
X141516039Y-165554225D01*
X141608151Y-165751762D01*
X141608154Y-165751767D01*
X141610477Y-165756749D01*
X141741802Y-165944300D01*
X141903700Y-166106198D01*
X141908208Y-166109355D01*
X141908211Y-166109357D01*
X141986389Y-166164098D01*
X142091251Y-166237523D01*
X142096233Y-166239846D01*
X142096238Y-166239849D01*
X142130457Y-166255805D01*
X142183742Y-166302722D01*
X142203203Y-166370999D01*
X142182661Y-166438959D01*
X142130457Y-166484195D01*
X142096238Y-166500151D01*
X142096233Y-166500154D01*
X142091251Y-166502477D01*
X141986389Y-166575902D01*
X141908211Y-166630643D01*
X141908208Y-166630645D01*
X141903700Y-166633802D01*
X141741802Y-166795700D01*
X141610477Y-166983251D01*
X141608154Y-166988233D01*
X141608151Y-166988238D01*
X141516039Y-167185775D01*
X141513716Y-167190757D01*
X141454457Y-167411913D01*
X141434502Y-167640000D01*
X141454457Y-167868087D01*
X141513716Y-168089243D01*
X141516039Y-168094224D01*
X141516039Y-168094225D01*
X141608151Y-168291762D01*
X141608154Y-168291767D01*
X141610477Y-168296749D01*
X141741802Y-168484300D01*
X141903700Y-168646198D01*
X141908208Y-168649355D01*
X141908211Y-168649357D01*
X141981251Y-168700500D01*
X142091251Y-168777523D01*
X142096233Y-168779846D01*
X142096238Y-168779849D01*
X142130457Y-168795805D01*
X142183742Y-168842722D01*
X142203203Y-168910999D01*
X142182661Y-168978959D01*
X142130457Y-169024195D01*
X142096238Y-169040151D01*
X142096233Y-169040154D01*
X142091251Y-169042477D01*
X141986389Y-169115902D01*
X141908211Y-169170643D01*
X141908208Y-169170645D01*
X141903700Y-169173802D01*
X141741802Y-169335700D01*
X141610477Y-169523251D01*
X141608154Y-169528233D01*
X141608151Y-169528238D01*
X141516039Y-169725775D01*
X141513716Y-169730757D01*
X141454457Y-169951913D01*
X141434502Y-170180000D01*
X141454457Y-170408087D01*
X141487925Y-170532990D01*
X141486235Y-170603965D01*
X141446441Y-170662761D01*
X141381177Y-170690709D01*
X141366218Y-170691600D01*
X126349782Y-170691600D01*
X126281661Y-170671598D01*
X126235168Y-170617942D01*
X126225064Y-170547668D01*
X126228073Y-170532998D01*
X126261543Y-170408087D01*
X126281498Y-170180000D01*
X126261543Y-169951913D01*
X126202284Y-169730757D01*
X126199961Y-169725775D01*
X126107849Y-169528238D01*
X126107846Y-169528233D01*
X126105523Y-169523251D01*
X125974198Y-169335700D01*
X125812300Y-169173802D01*
X125807792Y-169170645D01*
X125807789Y-169170643D01*
X125729611Y-169115902D01*
X125624749Y-169042477D01*
X125619767Y-169040154D01*
X125619762Y-169040151D01*
X125585543Y-169024195D01*
X125532258Y-168977278D01*
X125512797Y-168909001D01*
X125533339Y-168841041D01*
X125585543Y-168795805D01*
X125619762Y-168779849D01*
X125619767Y-168779846D01*
X125624749Y-168777523D01*
X125734749Y-168700500D01*
X125807789Y-168649357D01*
X125807792Y-168649355D01*
X125812300Y-168646198D01*
X125974198Y-168484300D01*
X126105523Y-168296749D01*
X126107846Y-168291767D01*
X126107849Y-168291762D01*
X126199961Y-168094225D01*
X126199961Y-168094224D01*
X126202284Y-168089243D01*
X126261543Y-167868087D01*
X126281498Y-167640000D01*
X126261543Y-167411913D01*
X126202284Y-167190757D01*
X126199961Y-167185775D01*
X126107849Y-166988238D01*
X126107846Y-166988233D01*
X126105523Y-166983251D01*
X125974198Y-166795700D01*
X125812300Y-166633802D01*
X125807792Y-166630645D01*
X125807789Y-166630643D01*
X125729611Y-166575902D01*
X125624749Y-166502477D01*
X125619767Y-166500154D01*
X125619762Y-166500151D01*
X125585543Y-166484195D01*
X125532258Y-166437278D01*
X125512797Y-166369001D01*
X125533339Y-166301041D01*
X125585543Y-166255805D01*
X125619762Y-166239849D01*
X125619767Y-166239846D01*
X125624749Y-166237523D01*
X125729611Y-166164098D01*
X125807789Y-166109357D01*
X125807792Y-166109355D01*
X125812300Y-166106198D01*
X125974198Y-165944300D01*
X126105523Y-165756749D01*
X126107846Y-165751767D01*
X126107849Y-165751762D01*
X126199961Y-165554225D01*
X126199961Y-165554224D01*
X126202284Y-165549243D01*
X126261543Y-165328087D01*
X126281498Y-165100000D01*
X126261543Y-164871913D01*
X126202284Y-164650757D01*
X126199961Y-164645775D01*
X126107849Y-164448238D01*
X126107846Y-164448233D01*
X126105523Y-164443251D01*
X125974198Y-164255700D01*
X125812300Y-164093802D01*
X125807792Y-164090645D01*
X125807789Y-164090643D01*
X125729611Y-164035902D01*
X125624749Y-163962477D01*
X125619767Y-163960154D01*
X125619762Y-163960151D01*
X125422225Y-163868039D01*
X125422224Y-163868039D01*
X125417243Y-163865716D01*
X125411935Y-163864294D01*
X125411933Y-163864293D01*
X125201402Y-163807881D01*
X125201400Y-163807881D01*
X125196087Y-163806457D01*
X124968000Y-163786502D01*
X124739913Y-163806457D01*
X124561810Y-163854180D01*
X124490835Y-163852490D01*
X124432039Y-163812696D01*
X124404091Y-163747432D01*
X124403200Y-163732473D01*
X124403200Y-161387527D01*
X124423202Y-161319406D01*
X124476858Y-161272913D01*
X124547132Y-161262809D01*
X124561802Y-161265818D01*
X124739913Y-161313543D01*
X124968000Y-161333498D01*
X125196087Y-161313543D01*
X125201400Y-161312119D01*
X125201402Y-161312119D01*
X125411933Y-161255707D01*
X125411935Y-161255706D01*
X125417243Y-161254284D01*
X125532801Y-161200399D01*
X125619762Y-161159849D01*
X125619767Y-161159846D01*
X125624749Y-161157523D01*
X125729611Y-161084098D01*
X125807789Y-161029357D01*
X125807792Y-161029355D01*
X125812300Y-161026198D01*
X125974198Y-160864300D01*
X126105523Y-160676749D01*
X126107846Y-160671767D01*
X126107849Y-160671762D01*
X126199961Y-160474225D01*
X126199961Y-160474224D01*
X126202284Y-160469243D01*
X126261543Y-160248087D01*
X126281498Y-160020000D01*
X126261543Y-159791913D01*
X126202284Y-159570757D01*
X126184691Y-159533028D01*
X126107849Y-159368238D01*
X126107846Y-159368233D01*
X126105523Y-159363251D01*
X125974198Y-159175700D01*
X125812300Y-159013802D01*
X125807792Y-159010645D01*
X125807789Y-159010643D01*
X125729611Y-158955902D01*
X125624749Y-158882477D01*
X125619767Y-158880154D01*
X125619762Y-158880151D01*
X125585543Y-158864195D01*
X125532258Y-158817278D01*
X125512797Y-158749001D01*
X125533339Y-158681041D01*
X125585543Y-158635805D01*
X125619762Y-158619849D01*
X125619767Y-158619846D01*
X125624749Y-158617523D01*
X125729611Y-158544098D01*
X125807789Y-158489357D01*
X125807792Y-158489355D01*
X125812300Y-158486198D01*
X125974198Y-158324300D01*
X126105523Y-158136749D01*
X126107846Y-158131767D01*
X126107849Y-158131762D01*
X126199961Y-157934225D01*
X126199961Y-157934224D01*
X126202284Y-157929243D01*
X126261543Y-157708087D01*
X126281498Y-157480000D01*
X126261543Y-157251913D01*
X126202284Y-157030757D01*
X126199961Y-157025775D01*
X126107849Y-156828238D01*
X126107846Y-156828233D01*
X126105523Y-156823251D01*
X125974198Y-156635700D01*
X125812300Y-156473802D01*
X125807792Y-156470645D01*
X125807789Y-156470643D01*
X125729611Y-156415902D01*
X125624749Y-156342477D01*
X125619767Y-156340154D01*
X125619762Y-156340151D01*
X125585543Y-156324195D01*
X125532258Y-156277278D01*
X125512797Y-156209001D01*
X125533339Y-156141041D01*
X125585543Y-156095805D01*
X125619762Y-156079849D01*
X125619767Y-156079846D01*
X125624749Y-156077523D01*
X125729611Y-156004098D01*
X125807789Y-155949357D01*
X125807792Y-155949355D01*
X125812300Y-155946198D01*
X125974198Y-155784300D01*
X126105523Y-155596749D01*
X126107846Y-155591767D01*
X126107849Y-155591762D01*
X126199961Y-155394225D01*
X126199961Y-155394224D01*
X126202284Y-155389243D01*
X126261543Y-155168087D01*
X126281498Y-154940000D01*
X126261543Y-154711913D01*
X126202284Y-154490757D01*
X126199961Y-154485775D01*
X126107849Y-154288238D01*
X126107846Y-154288233D01*
X126105523Y-154283251D01*
X125974198Y-154095700D01*
X125812300Y-153933802D01*
X125807792Y-153930645D01*
X125807789Y-153930643D01*
X125729611Y-153875902D01*
X125624749Y-153802477D01*
X125619767Y-153800154D01*
X125619762Y-153800151D01*
X125585543Y-153784195D01*
X125532258Y-153737278D01*
X125512797Y-153669001D01*
X125533339Y-153601041D01*
X125585543Y-153555805D01*
X125619762Y-153539849D01*
X125619767Y-153539846D01*
X125624749Y-153537523D01*
X125778156Y-153430106D01*
X125807789Y-153409357D01*
X125807792Y-153409355D01*
X125812300Y-153406198D01*
X125974198Y-153244300D01*
X126003468Y-153202499D01*
X126102366Y-153061257D01*
X126105523Y-153056749D01*
X126107846Y-153051767D01*
X126107849Y-153051762D01*
X126199961Y-152854225D01*
X126199961Y-152854224D01*
X126202284Y-152849243D01*
X126261543Y-152628087D01*
X126281498Y-152400000D01*
X126261543Y-152171913D01*
X126202284Y-151950757D01*
X126199961Y-151945775D01*
X126107849Y-151748238D01*
X126107846Y-151748233D01*
X126105523Y-151743251D01*
X125974198Y-151555700D01*
X125812300Y-151393802D01*
X125807792Y-151390645D01*
X125807789Y-151390643D01*
X125729611Y-151335902D01*
X125624749Y-151262477D01*
X125619767Y-151260154D01*
X125619762Y-151260151D01*
X125422225Y-151168039D01*
X125422224Y-151168039D01*
X125417243Y-151165716D01*
X125411935Y-151164294D01*
X125411933Y-151164293D01*
X125201402Y-151107881D01*
X125201400Y-151107881D01*
X125196087Y-151106457D01*
X124968000Y-151086502D01*
X124739913Y-151106457D01*
X124561810Y-151154180D01*
X124490835Y-151152490D01*
X124432039Y-151112696D01*
X124404091Y-151047432D01*
X124403200Y-151032473D01*
X124403200Y-148687527D01*
X124423202Y-148619406D01*
X124476858Y-148572913D01*
X124547132Y-148562809D01*
X124561802Y-148565818D01*
X124739913Y-148613543D01*
X124968000Y-148633498D01*
X125196087Y-148613543D01*
X125201400Y-148612119D01*
X125201402Y-148612119D01*
X125411933Y-148555707D01*
X125411935Y-148555706D01*
X125417243Y-148554284D01*
X125532801Y-148500399D01*
X125619762Y-148459849D01*
X125619767Y-148459846D01*
X125624749Y-148457523D01*
X125729611Y-148384098D01*
X125807789Y-148329357D01*
X125807792Y-148329355D01*
X125812300Y-148326198D01*
X125974198Y-148164300D01*
X126105523Y-147976749D01*
X126107846Y-147971767D01*
X126107849Y-147971762D01*
X126199961Y-147774225D01*
X126199961Y-147774224D01*
X126202284Y-147769243D01*
X126261543Y-147548087D01*
X126281498Y-147320000D01*
X126261543Y-147091913D01*
X126202284Y-146870757D01*
X126199961Y-146865775D01*
X126107849Y-146668238D01*
X126107846Y-146668233D01*
X126105523Y-146663251D01*
X125974198Y-146475700D01*
X125812300Y-146313802D01*
X125807792Y-146310645D01*
X125807789Y-146310643D01*
X125729611Y-146255902D01*
X125624749Y-146182477D01*
X125619767Y-146180154D01*
X125619762Y-146180151D01*
X125585543Y-146164195D01*
X125532258Y-146117278D01*
X125512797Y-146049001D01*
X125533339Y-145981041D01*
X125585543Y-145935805D01*
X125619762Y-145919849D01*
X125619767Y-145919846D01*
X125624749Y-145917523D01*
X125729611Y-145844098D01*
X125807789Y-145789357D01*
X125807792Y-145789355D01*
X125812300Y-145786198D01*
X125974198Y-145624300D01*
X126105523Y-145436749D01*
X126107846Y-145431767D01*
X126107849Y-145431762D01*
X126199961Y-145234225D01*
X126199961Y-145234224D01*
X126202284Y-145229243D01*
X126261543Y-145008087D01*
X126281498Y-144780000D01*
X126261543Y-144551913D01*
X126202284Y-144330757D01*
X126199961Y-144325775D01*
X126107849Y-144128238D01*
X126107846Y-144128233D01*
X126105523Y-144123251D01*
X125974198Y-143935700D01*
X125812300Y-143773802D01*
X125807792Y-143770645D01*
X125807789Y-143770643D01*
X125729611Y-143715902D01*
X125624749Y-143642477D01*
X125619767Y-143640154D01*
X125619762Y-143640151D01*
X125585543Y-143624195D01*
X125532258Y-143577278D01*
X125512797Y-143509001D01*
X125533339Y-143441041D01*
X125585543Y-143395805D01*
X125619762Y-143379849D01*
X125619767Y-143379846D01*
X125624749Y-143377523D01*
X125764530Y-143279647D01*
X125807789Y-143249357D01*
X125807792Y-143249355D01*
X125812300Y-143246198D01*
X125974198Y-143084300D01*
X125991757Y-143059224D01*
X126102366Y-142901257D01*
X126105523Y-142896749D01*
X126107846Y-142891767D01*
X126107849Y-142891762D01*
X126199961Y-142694225D01*
X126199961Y-142694224D01*
X126202284Y-142689243D01*
X126257867Y-142481808D01*
X126260119Y-142473402D01*
X126260119Y-142473400D01*
X126261543Y-142468087D01*
X126281498Y-142240000D01*
X126261543Y-142011913D01*
X126202284Y-141790757D01*
X126199961Y-141785775D01*
X126107849Y-141588238D01*
X126107846Y-141588233D01*
X126105523Y-141583251D01*
X125974198Y-141395700D01*
X125812300Y-141233802D01*
X125807792Y-141230645D01*
X125807789Y-141230643D01*
X125729611Y-141175902D01*
X125624749Y-141102477D01*
X125619767Y-141100154D01*
X125619762Y-141100151D01*
X125585543Y-141084195D01*
X125532258Y-141037278D01*
X125512797Y-140969001D01*
X125533339Y-140901041D01*
X125585543Y-140855805D01*
X125619762Y-140839849D01*
X125619767Y-140839846D01*
X125624749Y-140837523D01*
X125748902Y-140750590D01*
X125807789Y-140709357D01*
X125807792Y-140709355D01*
X125812300Y-140706198D01*
X125974198Y-140544300D01*
X125998942Y-140508963D01*
X126102366Y-140361257D01*
X126105523Y-140356749D01*
X126107846Y-140351767D01*
X126107849Y-140351762D01*
X126199961Y-140154225D01*
X126199961Y-140154224D01*
X126202284Y-140149243D01*
X126261543Y-139928087D01*
X126281498Y-139700000D01*
X126261543Y-139471913D01*
X126202284Y-139250757D01*
X126199961Y-139245775D01*
X126107849Y-139048238D01*
X126107846Y-139048233D01*
X126105523Y-139043251D01*
X125974198Y-138855700D01*
X125812300Y-138693802D01*
X125807792Y-138690645D01*
X125807789Y-138690643D01*
X125729611Y-138635902D01*
X125624749Y-138562477D01*
X125619767Y-138560154D01*
X125619762Y-138560151D01*
X125422225Y-138468039D01*
X125422224Y-138468039D01*
X125417243Y-138465716D01*
X125411935Y-138464294D01*
X125411933Y-138464293D01*
X125201402Y-138407881D01*
X125201400Y-138407881D01*
X125196087Y-138406457D01*
X124968000Y-138386502D01*
X124739913Y-138406457D01*
X124734600Y-138407881D01*
X124734598Y-138407881D01*
X124524067Y-138464293D01*
X124524065Y-138464294D01*
X124518757Y-138465716D01*
X124513776Y-138468039D01*
X124513775Y-138468039D01*
X124316238Y-138560151D01*
X124316233Y-138560154D01*
X124311251Y-138562477D01*
X124206389Y-138635902D01*
X124128211Y-138690643D01*
X124128208Y-138690645D01*
X124123700Y-138693802D01*
X123961802Y-138855700D01*
X123830477Y-139043251D01*
X123828154Y-139048233D01*
X123828151Y-139048238D01*
X123736039Y-139245775D01*
X123733716Y-139250757D01*
X123674457Y-139471913D01*
X123654502Y-139700000D01*
X123654981Y-139705475D01*
X123668755Y-139862913D01*
X123654766Y-139932518D01*
X123632329Y-139962990D01*
X123155789Y-140439530D01*
X123141377Y-140451916D01*
X123129782Y-140460449D01*
X123129777Y-140460454D01*
X123123882Y-140464792D01*
X123119143Y-140470370D01*
X123119140Y-140470373D01*
X123089665Y-140505068D01*
X123082735Y-140512584D01*
X123077040Y-140518279D01*
X123074760Y-140521161D01*
X123059419Y-140540551D01*
X123056628Y-140543955D01*
X123014109Y-140594003D01*
X123009367Y-140599585D01*
X123006039Y-140606101D01*
X123002672Y-140611150D01*
X122999505Y-140616279D01*
X122994966Y-140622016D01*
X122964045Y-140688175D01*
X122962142Y-140692069D01*
X122928931Y-140757108D01*
X122927192Y-140764216D01*
X122925093Y-140769859D01*
X122923176Y-140775622D01*
X122920078Y-140782250D01*
X122918588Y-140789412D01*
X122918588Y-140789413D01*
X122905214Y-140853712D01*
X122904244Y-140857996D01*
X122886892Y-140928910D01*
X122886200Y-140940064D01*
X122886164Y-140940062D01*
X122885925Y-140944055D01*
X122885551Y-140948247D01*
X122884060Y-140955415D01*
X122884258Y-140962732D01*
X122886154Y-141032821D01*
X122886200Y-141036228D01*
X122886200Y-170565600D01*
X122866198Y-170633721D01*
X122812542Y-170680214D01*
X122760200Y-170691600D01*
X116991970Y-170691600D01*
X116973020Y-170690167D01*
X116958785Y-170688001D01*
X116958781Y-170688001D01*
X116951551Y-170686901D01*
X116944259Y-170687494D01*
X116944256Y-170687494D01*
X116898882Y-170691185D01*
X116888667Y-170691600D01*
X116880607Y-170691600D01*
X116876973Y-170692024D01*
X116876967Y-170692024D01*
X116863942Y-170693543D01*
X116852380Y-170694891D01*
X116848032Y-170695321D01*
X116775264Y-170701240D01*
X116768303Y-170703495D01*
X116762363Y-170704682D01*
X116756488Y-170706071D01*
X116749219Y-170706918D01*
X116680570Y-170731836D01*
X116676442Y-170733253D01*
X116613964Y-170753493D01*
X116613962Y-170753494D01*
X116607001Y-170755749D01*
X116600746Y-170759545D01*
X116595272Y-170762051D01*
X116589842Y-170764770D01*
X116582963Y-170767267D01*
X116576843Y-170771280D01*
X116576842Y-170771280D01*
X116521924Y-170807286D01*
X116518220Y-170809623D01*
X116455793Y-170847505D01*
X116447416Y-170854903D01*
X116447392Y-170854876D01*
X116444400Y-170857529D01*
X116441167Y-170860232D01*
X116435048Y-170864244D01*
X116396797Y-170904622D01*
X116381772Y-170920483D01*
X116379394Y-170922925D01*
X115487240Y-171815079D01*
X115424928Y-171849105D01*
X115354113Y-171844040D01*
X115304952Y-171810784D01*
X115232798Y-171731488D01*
X115201746Y-171667642D01*
X115210141Y-171597143D01*
X115255317Y-171542375D01*
X115281761Y-171528706D01*
X115388297Y-171488767D01*
X115396705Y-171485615D01*
X115513261Y-171398261D01*
X115600615Y-171281705D01*
X115651745Y-171145316D01*
X115658500Y-171083134D01*
X115658500Y-169286866D01*
X115651745Y-169224684D01*
X115600615Y-169088295D01*
X115513261Y-168971739D01*
X115396705Y-168884385D01*
X115260316Y-168833255D01*
X115198134Y-168826500D01*
X115184500Y-168826500D01*
X115116379Y-168806498D01*
X115069886Y-168752842D01*
X115058500Y-168700500D01*
X115058500Y-143114371D01*
X115078502Y-143046250D01*
X115095405Y-143025276D01*
X123451061Y-134669620D01*
X123513373Y-134635594D01*
X123584188Y-134640659D01*
G37*
%TD.AperFunction*%
%TD*%
M02*
