%TF.GenerationSoftware,KiCad,Pcbnew,(6.0.6-0)*%
%TF.CreationDate,2022-10-25T05:48:04+09:00*%
%TF.ProjectId,PicoPi-1,5069636f-5069-42d3-912e-6b696361645f,rev?*%
%TF.SameCoordinates,Original*%
%TF.FileFunction,Soldermask,Top*%
%TF.FilePolarity,Negative*%
%FSLAX46Y46*%
G04 Gerber Fmt 4.6, Leading zero omitted, Abs format (unit mm)*
G04 Created by KiCad (PCBNEW (6.0.6-0)) date 2022-10-25 05:48:04*
%MOMM*%
%LPD*%
G01*
G04 APERTURE LIST*
G04 Aperture macros list*
%AMRoundRect*
0 Rectangle with rounded corners*
0 $1 Rounding radius*
0 $2 $3 $4 $5 $6 $7 $8 $9 X,Y pos of 4 corners*
0 Add a 4 corners polygon primitive as box body*
4,1,4,$2,$3,$4,$5,$6,$7,$8,$9,$2,$3,0*
0 Add four circle primitives for the rounded corners*
1,1,$1+$1,$2,$3*
1,1,$1+$1,$4,$5*
1,1,$1+$1,$6,$7*
1,1,$1+$1,$8,$9*
0 Add four rect primitives between the rounded corners*
20,1,$1+$1,$2,$3,$4,$5,0*
20,1,$1+$1,$4,$5,$6,$7,0*
20,1,$1+$1,$6,$7,$8,$9,0*
20,1,$1+$1,$8,$9,$2,$3,0*%
G04 Aperture macros list end*
%ADD10C,1.600000*%
%ADD11RoundRect,0.237500X-0.250000X-0.237500X0.250000X-0.237500X0.250000X0.237500X-0.250000X0.237500X0*%
%ADD12RoundRect,0.237500X0.250000X0.237500X-0.250000X0.237500X-0.250000X-0.237500X0.250000X-0.237500X0*%
%ADD13R,1.700000X1.700000*%
%ADD14O,1.700000X1.700000*%
G04 APERTURE END LIST*
D10*
%TO.C,J1*%
X124968000Y-132080000D03*
X124968000Y-134620000D03*
X124968000Y-137160000D03*
X124968000Y-139700000D03*
X124968000Y-142240000D03*
X124968000Y-144780000D03*
X124968000Y-147320000D03*
X124968000Y-149860000D03*
X124968000Y-152400000D03*
X124968000Y-154940000D03*
X124968000Y-157480000D03*
X124968000Y-160020000D03*
X124968000Y-162560000D03*
X124968000Y-165100000D03*
X124968000Y-167640000D03*
X124968000Y-170180000D03*
X124968000Y-172720000D03*
X124968000Y-175260000D03*
X124968000Y-177800000D03*
X124968000Y-180340000D03*
X142748000Y-180340000D03*
X142748000Y-177800000D03*
X142748000Y-175260000D03*
X142748000Y-172720000D03*
X142748000Y-170180000D03*
X142748000Y-167640000D03*
X142748000Y-165100000D03*
X142748000Y-162560000D03*
X142748000Y-160020000D03*
X142748000Y-157480000D03*
X142748000Y-154940000D03*
X142748000Y-152400000D03*
X142748000Y-149860000D03*
X142748000Y-147320000D03*
X142748000Y-144780000D03*
X142748000Y-142240000D03*
X142748000Y-139700000D03*
X142748000Y-137160000D03*
X142748000Y-134620000D03*
X142748000Y-132080000D03*
%TD*%
D11*
%TO.C,R29*%
X148947500Y-163830000D03*
X150772500Y-163830000D03*
%TD*%
D12*
%TO.C,R7*%
X119022500Y-151130000D03*
X117197500Y-151130000D03*
%TD*%
D11*
%TO.C,R22*%
X148947500Y-146050000D03*
X150772500Y-146050000D03*
%TD*%
%TO.C,R39*%
X153392500Y-161290000D03*
X155217500Y-161290000D03*
%TD*%
%TO.C,R28*%
X148947500Y-161290000D03*
X150772500Y-161290000D03*
%TD*%
D13*
%TO.C,J2*%
X114300000Y-170185000D03*
D14*
X114300000Y-172725000D03*
X114300000Y-175265000D03*
X114300000Y-177805000D03*
X114300000Y-180345000D03*
%TD*%
D11*
%TO.C,R23*%
X148947500Y-148590000D03*
X150772500Y-148590000D03*
%TD*%
%TO.C,R16*%
X112752500Y-151130000D03*
X114577500Y-151130000D03*
%TD*%
D12*
%TO.C,R3*%
X119022500Y-161290000D03*
X117197500Y-161290000D03*
%TD*%
D13*
%TO.C,J3*%
X153670000Y-170180000D03*
D14*
X153670000Y-172720000D03*
X153670000Y-175260000D03*
X153670000Y-177800000D03*
X153670000Y-180340000D03*
%TD*%
D11*
%TO.C,R25*%
X148947500Y-153670000D03*
X150772500Y-153670000D03*
%TD*%
%TO.C,R40*%
X153392500Y-163830000D03*
X155217500Y-163830000D03*
%TD*%
%TO.C,R18*%
X112752500Y-146050000D03*
X114577500Y-146050000D03*
%TD*%
%TO.C,R14*%
X112752500Y-156210000D03*
X114577500Y-156210000D03*
%TD*%
%TO.C,R31*%
X153392500Y-140970000D03*
X155217500Y-140970000D03*
%TD*%
%TO.C,R19*%
X112752500Y-143510000D03*
X114577500Y-143510000D03*
%TD*%
%TO.C,R11*%
X112752500Y-163830000D03*
X114577500Y-163830000D03*
%TD*%
%TO.C,R33*%
X153392500Y-146050000D03*
X155217500Y-146050000D03*
%TD*%
D13*
%TO.C,J4*%
X111760000Y-130810000D03*
D14*
X114300000Y-130810000D03*
%TD*%
D12*
%TO.C,R10*%
X119022500Y-143510000D03*
X117197500Y-143510000D03*
%TD*%
D11*
%TO.C,R13*%
X112752500Y-158750000D03*
X114577500Y-158750000D03*
%TD*%
%TO.C,R15*%
X112752500Y-153670000D03*
X114577500Y-153670000D03*
%TD*%
%TO.C,R21*%
X150772500Y-143510000D03*
X148947500Y-143510000D03*
%TD*%
%TO.C,R26*%
X148947500Y-156210000D03*
X150772500Y-156210000D03*
%TD*%
%TO.C,R38*%
X153392500Y-158750000D03*
X155217500Y-158750000D03*
%TD*%
D12*
%TO.C,R5*%
X119022500Y-156210000D03*
X117197500Y-156210000D03*
%TD*%
%TO.C,R4*%
X119022500Y-158750000D03*
X117197500Y-158750000D03*
%TD*%
D11*
%TO.C,R32*%
X153392500Y-143510000D03*
X155217500Y-143510000D03*
%TD*%
%TO.C,R27*%
X148947500Y-158750000D03*
X150772500Y-158750000D03*
%TD*%
%TO.C,R20*%
X112752500Y-140970000D03*
X114577500Y-140970000D03*
%TD*%
%TO.C,R35*%
X153392500Y-151130000D03*
X155217500Y-151130000D03*
%TD*%
%TO.C,R24*%
X148947500Y-151130000D03*
X150772500Y-151130000D03*
%TD*%
D13*
%TO.C,J5*%
X153670000Y-130810000D03*
D14*
X156210000Y-130810000D03*
%TD*%
D12*
%TO.C,R6*%
X119022500Y-153670000D03*
X117197500Y-153670000D03*
%TD*%
%TO.C,R1*%
X119022500Y-166370000D03*
X117197500Y-166370000D03*
%TD*%
D11*
%TO.C,R17*%
X112752500Y-148590000D03*
X114577500Y-148590000D03*
%TD*%
D12*
%TO.C,R9*%
X119022500Y-146050000D03*
X117197500Y-146050000D03*
%TD*%
%TO.C,R2*%
X117197500Y-163830000D03*
X119022500Y-163830000D03*
%TD*%
%TO.C,R8*%
X119022500Y-148590000D03*
X117197500Y-148590000D03*
%TD*%
D11*
%TO.C,R34*%
X153392500Y-148590000D03*
X155217500Y-148590000D03*
%TD*%
%TO.C,R37*%
X153392500Y-156210000D03*
X155217500Y-156210000D03*
%TD*%
%TO.C,R30*%
X148947500Y-166370000D03*
X150772500Y-166370000D03*
%TD*%
%TO.C,R12*%
X112752500Y-161290000D03*
X114577500Y-161290000D03*
%TD*%
%TO.C,R36*%
X153392500Y-153670000D03*
X155217500Y-153670000D03*
%TD*%
M02*
