%TF.GenerationSoftware,KiCad,Pcbnew,(6.0.6-0)*%
%TF.CreationDate,2022-10-25T05:48:03+09:00*%
%TF.ProjectId,PicoPi-1,5069636f-5069-42d3-912e-6b696361645f,rev?*%
%TF.SameCoordinates,Original*%
%TF.FileFunction,Legend,Top*%
%TF.FilePolarity,Positive*%
%FSLAX46Y46*%
G04 Gerber Fmt 4.6, Leading zero omitted, Abs format (unit mm)*
G04 Created by KiCad (PCBNEW (6.0.6-0)) date 2022-10-25 05:48:03*
%MOMM*%
%LPD*%
G01*
G04 APERTURE LIST*
%ADD10C,0.200000*%
%ADD11C,0.500000*%
%ADD12C,0.150000*%
%ADD13C,0.100000*%
%ADD14C,0.120000*%
G04 APERTURE END LIST*
D10*
X118048571Y-182337142D02*
X118105714Y-182280000D01*
X118220000Y-182222857D01*
X118505714Y-182222857D01*
X118620000Y-182280000D01*
X118677142Y-182337142D01*
X118734285Y-182451428D01*
X118734285Y-182565714D01*
X118677142Y-182737142D01*
X117991428Y-183422857D01*
X118734285Y-183422857D01*
X119477142Y-182222857D02*
X119591428Y-182222857D01*
X119705714Y-182280000D01*
X119762857Y-182337142D01*
X119820000Y-182451428D01*
X119877142Y-182680000D01*
X119877142Y-182965714D01*
X119820000Y-183194285D01*
X119762857Y-183308571D01*
X119705714Y-183365714D01*
X119591428Y-183422857D01*
X119477142Y-183422857D01*
X119362857Y-183365714D01*
X119305714Y-183308571D01*
X119248571Y-183194285D01*
X119191428Y-182965714D01*
X119191428Y-182680000D01*
X119248571Y-182451428D01*
X119305714Y-182337142D01*
X119362857Y-182280000D01*
X119477142Y-182222857D01*
X120334285Y-182337142D02*
X120391428Y-182280000D01*
X120505714Y-182222857D01*
X120791428Y-182222857D01*
X120905714Y-182280000D01*
X120962857Y-182337142D01*
X121020000Y-182451428D01*
X121020000Y-182565714D01*
X120962857Y-182737142D01*
X120277142Y-183422857D01*
X121020000Y-183422857D01*
X121477142Y-182337142D02*
X121534285Y-182280000D01*
X121648571Y-182222857D01*
X121934285Y-182222857D01*
X122048571Y-182280000D01*
X122105714Y-182337142D01*
X122162857Y-182451428D01*
X122162857Y-182565714D01*
X122105714Y-182737142D01*
X121420000Y-183422857D01*
X122162857Y-183422857D01*
X122677142Y-183308571D02*
X122734285Y-183365714D01*
X122677142Y-183422857D01*
X122620000Y-183365714D01*
X122677142Y-183308571D01*
X122677142Y-183422857D01*
X123877142Y-183422857D02*
X123191428Y-183422857D01*
X123534285Y-183422857D02*
X123534285Y-182222857D01*
X123420000Y-182394285D01*
X123305714Y-182508571D01*
X123191428Y-182565714D01*
X124620000Y-182222857D02*
X124734285Y-182222857D01*
X124848571Y-182280000D01*
X124905714Y-182337142D01*
X124962857Y-182451428D01*
X125020000Y-182680000D01*
X125020000Y-182965714D01*
X124962857Y-183194285D01*
X124905714Y-183308571D01*
X124848571Y-183365714D01*
X124734285Y-183422857D01*
X124620000Y-183422857D01*
X124505714Y-183365714D01*
X124448571Y-183308571D01*
X124391428Y-183194285D01*
X124334285Y-182965714D01*
X124334285Y-182680000D01*
X124391428Y-182451428D01*
X124448571Y-182337142D01*
X124505714Y-182280000D01*
X124620000Y-182222857D01*
X125534285Y-183308571D02*
X125591428Y-183365714D01*
X125534285Y-183422857D01*
X125477142Y-183365714D01*
X125534285Y-183308571D01*
X125534285Y-183422857D01*
X126048571Y-182337142D02*
X126105714Y-182280000D01*
X126220000Y-182222857D01*
X126505714Y-182222857D01*
X126620000Y-182280000D01*
X126677142Y-182337142D01*
X126734285Y-182451428D01*
X126734285Y-182565714D01*
X126677142Y-182737142D01*
X125991428Y-183422857D01*
X126734285Y-183422857D01*
X127820000Y-182222857D02*
X127248571Y-182222857D01*
X127191428Y-182794285D01*
X127248571Y-182737142D01*
X127362857Y-182680000D01*
X127648571Y-182680000D01*
X127762857Y-182737142D01*
X127820000Y-182794285D01*
X127877142Y-182908571D01*
X127877142Y-183194285D01*
X127820000Y-183308571D01*
X127762857Y-183365714D01*
X127648571Y-183422857D01*
X127362857Y-183422857D01*
X127248571Y-183365714D01*
X127191428Y-183308571D01*
X129305714Y-183422857D02*
X129305714Y-182222857D01*
X129591428Y-182222857D01*
X129762857Y-182280000D01*
X129877142Y-182394285D01*
X129934285Y-182508571D01*
X129991428Y-182737142D01*
X129991428Y-182908571D01*
X129934285Y-183137142D01*
X129877142Y-183251428D01*
X129762857Y-183365714D01*
X129591428Y-183422857D01*
X129305714Y-183422857D01*
X130962857Y-183365714D02*
X130848571Y-183422857D01*
X130620000Y-183422857D01*
X130505714Y-183365714D01*
X130448571Y-183251428D01*
X130448571Y-182794285D01*
X130505714Y-182680000D01*
X130620000Y-182622857D01*
X130848571Y-182622857D01*
X130962857Y-182680000D01*
X131020000Y-182794285D01*
X131020000Y-182908571D01*
X130448571Y-183022857D01*
X131477142Y-183365714D02*
X131591428Y-183422857D01*
X131820000Y-183422857D01*
X131934285Y-183365714D01*
X131991428Y-183251428D01*
X131991428Y-183194285D01*
X131934285Y-183080000D01*
X131820000Y-183022857D01*
X131648571Y-183022857D01*
X131534285Y-182965714D01*
X131477142Y-182851428D01*
X131477142Y-182794285D01*
X131534285Y-182680000D01*
X131648571Y-182622857D01*
X131820000Y-182622857D01*
X131934285Y-182680000D01*
X132505714Y-183422857D02*
X132505714Y-182622857D01*
X132505714Y-182222857D02*
X132448571Y-182280000D01*
X132505714Y-182337142D01*
X132562857Y-182280000D01*
X132505714Y-182222857D01*
X132505714Y-182337142D01*
X133591428Y-182622857D02*
X133591428Y-183594285D01*
X133534285Y-183708571D01*
X133477142Y-183765714D01*
X133362857Y-183822857D01*
X133191428Y-183822857D01*
X133077142Y-183765714D01*
X133591428Y-183365714D02*
X133477142Y-183422857D01*
X133248571Y-183422857D01*
X133134285Y-183365714D01*
X133077142Y-183308571D01*
X133020000Y-183194285D01*
X133020000Y-182851428D01*
X133077142Y-182737142D01*
X133134285Y-182680000D01*
X133248571Y-182622857D01*
X133477142Y-182622857D01*
X133591428Y-182680000D01*
X134162857Y-182622857D02*
X134162857Y-183422857D01*
X134162857Y-182737142D02*
X134220000Y-182680000D01*
X134334285Y-182622857D01*
X134505714Y-182622857D01*
X134620000Y-182680000D01*
X134677142Y-182794285D01*
X134677142Y-183422857D01*
X135705714Y-183365714D02*
X135591428Y-183422857D01*
X135362857Y-183422857D01*
X135248571Y-183365714D01*
X135191428Y-183251428D01*
X135191428Y-182794285D01*
X135248571Y-182680000D01*
X135362857Y-182622857D01*
X135591428Y-182622857D01*
X135705714Y-182680000D01*
X135762857Y-182794285D01*
X135762857Y-182908571D01*
X135191428Y-183022857D01*
X136791428Y-183422857D02*
X136791428Y-182222857D01*
X136791428Y-183365714D02*
X136677142Y-183422857D01*
X136448571Y-183422857D01*
X136334285Y-183365714D01*
X136277142Y-183308571D01*
X136220000Y-183194285D01*
X136220000Y-182851428D01*
X136277142Y-182737142D01*
X136334285Y-182680000D01*
X136448571Y-182622857D01*
X136677142Y-182622857D01*
X136791428Y-182680000D01*
X138277142Y-183422857D02*
X138277142Y-182222857D01*
X138277142Y-182680000D02*
X138391428Y-182622857D01*
X138620000Y-182622857D01*
X138734285Y-182680000D01*
X138791428Y-182737142D01*
X138848571Y-182851428D01*
X138848571Y-183194285D01*
X138791428Y-183308571D01*
X138734285Y-183365714D01*
X138620000Y-183422857D01*
X138391428Y-183422857D01*
X138277142Y-183365714D01*
X139248571Y-182622857D02*
X139534285Y-183422857D01*
X139820000Y-182622857D02*
X139534285Y-183422857D01*
X139420000Y-183708571D01*
X139362857Y-183765714D01*
X139248571Y-183822857D01*
X141191428Y-183422857D02*
X141191428Y-182222857D01*
X141591428Y-183080000D01*
X141991428Y-182222857D01*
X141991428Y-183422857D01*
X143020000Y-183365714D02*
X142905714Y-183422857D01*
X142677142Y-183422857D01*
X142562857Y-183365714D01*
X142505714Y-183251428D01*
X142505714Y-182794285D01*
X142562857Y-182680000D01*
X142677142Y-182622857D01*
X142905714Y-182622857D01*
X143020000Y-182680000D01*
X143077142Y-182794285D01*
X143077142Y-182908571D01*
X142505714Y-183022857D01*
X143762857Y-183422857D02*
X143648571Y-183365714D01*
X143591428Y-183251428D01*
X143591428Y-182222857D01*
X144391428Y-183422857D02*
X144277142Y-183365714D01*
X144220000Y-183251428D01*
X144220000Y-182222857D01*
X145020000Y-183422857D02*
X144905714Y-183365714D01*
X144848571Y-183308571D01*
X144791428Y-183194285D01*
X144791428Y-182851428D01*
X144848571Y-182737142D01*
X144905714Y-182680000D01*
X145020000Y-182622857D01*
X145191428Y-182622857D01*
X145305714Y-182680000D01*
X145362857Y-182737142D01*
X145420000Y-182851428D01*
X145420000Y-183194285D01*
X145362857Y-183308571D01*
X145305714Y-183365714D01*
X145191428Y-183422857D01*
X145020000Y-183422857D01*
X145820000Y-182622857D02*
X146048571Y-183422857D01*
X146277142Y-182851428D01*
X146505714Y-183422857D01*
X146734285Y-182622857D01*
X148105714Y-183422857D02*
X148105714Y-182222857D01*
X148562857Y-182222857D01*
X148677142Y-182280000D01*
X148734285Y-182337142D01*
X148791428Y-182451428D01*
X148791428Y-182622857D01*
X148734285Y-182737142D01*
X148677142Y-182794285D01*
X148562857Y-182851428D01*
X148105714Y-182851428D01*
X149991428Y-183308571D02*
X149934285Y-183365714D01*
X149762857Y-183422857D01*
X149648571Y-183422857D01*
X149477142Y-183365714D01*
X149362857Y-183251428D01*
X149305714Y-183137142D01*
X149248571Y-182908571D01*
X149248571Y-182737142D01*
X149305714Y-182508571D01*
X149362857Y-182394285D01*
X149477142Y-182280000D01*
X149648571Y-182222857D01*
X149762857Y-182222857D01*
X149934285Y-182280000D01*
X149991428Y-182337142D01*
X150905714Y-182794285D02*
X151077142Y-182851428D01*
X151134285Y-182908571D01*
X151191428Y-183022857D01*
X151191428Y-183194285D01*
X151134285Y-183308571D01*
X151077142Y-183365714D01*
X150962857Y-183422857D01*
X150505714Y-183422857D01*
X150505714Y-182222857D01*
X150905714Y-182222857D01*
X151020000Y-182280000D01*
X151077142Y-182337142D01*
X151134285Y-182451428D01*
X151134285Y-182565714D01*
X151077142Y-182680000D01*
X151020000Y-182737142D01*
X150905714Y-182794285D01*
X150505714Y-182794285D01*
D11*
X127556428Y-130444761D02*
X127556428Y-128444761D01*
X128318333Y-128444761D01*
X128508809Y-128540000D01*
X128604047Y-128635238D01*
X128699285Y-128825714D01*
X128699285Y-129111428D01*
X128604047Y-129301904D01*
X128508809Y-129397142D01*
X128318333Y-129492380D01*
X127556428Y-129492380D01*
X129556428Y-130444761D02*
X129556428Y-129111428D01*
X129556428Y-128444761D02*
X129461190Y-128540000D01*
X129556428Y-128635238D01*
X129651666Y-128540000D01*
X129556428Y-128444761D01*
X129556428Y-128635238D01*
X131365952Y-130349523D02*
X131175476Y-130444761D01*
X130794523Y-130444761D01*
X130604047Y-130349523D01*
X130508809Y-130254285D01*
X130413571Y-130063809D01*
X130413571Y-129492380D01*
X130508809Y-129301904D01*
X130604047Y-129206666D01*
X130794523Y-129111428D01*
X131175476Y-129111428D01*
X131365952Y-129206666D01*
X132508809Y-130444761D02*
X132318333Y-130349523D01*
X132223095Y-130254285D01*
X132127857Y-130063809D01*
X132127857Y-129492380D01*
X132223095Y-129301904D01*
X132318333Y-129206666D01*
X132508809Y-129111428D01*
X132794523Y-129111428D01*
X132985000Y-129206666D01*
X133080238Y-129301904D01*
X133175476Y-129492380D01*
X133175476Y-130063809D01*
X133080238Y-130254285D01*
X132985000Y-130349523D01*
X132794523Y-130444761D01*
X132508809Y-130444761D01*
X134032619Y-130444761D02*
X134032619Y-128444761D01*
X134794523Y-128444761D01*
X134985000Y-128540000D01*
X135080238Y-128635238D01*
X135175476Y-128825714D01*
X135175476Y-129111428D01*
X135080238Y-129301904D01*
X134985000Y-129397142D01*
X134794523Y-129492380D01*
X134032619Y-129492380D01*
X136032619Y-130444761D02*
X136032619Y-129111428D01*
X136032619Y-128444761D02*
X135937380Y-128540000D01*
X136032619Y-128635238D01*
X136127857Y-128540000D01*
X136032619Y-128444761D01*
X136032619Y-128635238D01*
X136985000Y-129682857D02*
X138508809Y-129682857D01*
X140508809Y-130444761D02*
X139365952Y-130444761D01*
X139937380Y-130444761D02*
X139937380Y-128444761D01*
X139746904Y-128730476D01*
X139556428Y-128920952D01*
X139365952Y-129016190D01*
D12*
%TO.C,J1*%
X132434666Y-128442380D02*
X132434666Y-129156666D01*
X132387047Y-129299523D01*
X132291809Y-129394761D01*
X132148952Y-129442380D01*
X132053714Y-129442380D01*
X133434666Y-129442380D02*
X132863238Y-129442380D01*
X133148952Y-129442380D02*
X133148952Y-128442380D01*
X133053714Y-128585238D01*
X132958476Y-128680476D01*
X132863238Y-128728095D01*
%TO.C,R29*%
X145407142Y-164282380D02*
X145073809Y-163806190D01*
X144835714Y-164282380D02*
X144835714Y-163282380D01*
X145216666Y-163282380D01*
X145311904Y-163330000D01*
X145359523Y-163377619D01*
X145407142Y-163472857D01*
X145407142Y-163615714D01*
X145359523Y-163710952D01*
X145311904Y-163758571D01*
X145216666Y-163806190D01*
X144835714Y-163806190D01*
X145788095Y-163377619D02*
X145835714Y-163330000D01*
X145930952Y-163282380D01*
X146169047Y-163282380D01*
X146264285Y-163330000D01*
X146311904Y-163377619D01*
X146359523Y-163472857D01*
X146359523Y-163568095D01*
X146311904Y-163710952D01*
X145740476Y-164282380D01*
X146359523Y-164282380D01*
X146835714Y-164282380D02*
X147026190Y-164282380D01*
X147121428Y-164234761D01*
X147169047Y-164187142D01*
X147264285Y-164044285D01*
X147311904Y-163853809D01*
X147311904Y-163472857D01*
X147264285Y-163377619D01*
X147216666Y-163330000D01*
X147121428Y-163282380D01*
X146930952Y-163282380D01*
X146835714Y-163330000D01*
X146788095Y-163377619D01*
X146740476Y-163472857D01*
X146740476Y-163710952D01*
X146788095Y-163806190D01*
X146835714Y-163853809D01*
X146930952Y-163901428D01*
X147121428Y-163901428D01*
X147216666Y-163853809D01*
X147264285Y-163806190D01*
X147311904Y-163710952D01*
%TO.C,R7*%
X121118333Y-151582380D02*
X120785000Y-151106190D01*
X120546904Y-151582380D02*
X120546904Y-150582380D01*
X120927857Y-150582380D01*
X121023095Y-150630000D01*
X121070714Y-150677619D01*
X121118333Y-150772857D01*
X121118333Y-150915714D01*
X121070714Y-151010952D01*
X121023095Y-151058571D01*
X120927857Y-151106190D01*
X120546904Y-151106190D01*
X121451666Y-150582380D02*
X122118333Y-150582380D01*
X121689761Y-151582380D01*
%TO.C,R22*%
X145407142Y-146502380D02*
X145073809Y-146026190D01*
X144835714Y-146502380D02*
X144835714Y-145502380D01*
X145216666Y-145502380D01*
X145311904Y-145550000D01*
X145359523Y-145597619D01*
X145407142Y-145692857D01*
X145407142Y-145835714D01*
X145359523Y-145930952D01*
X145311904Y-145978571D01*
X145216666Y-146026190D01*
X144835714Y-146026190D01*
X145788095Y-145597619D02*
X145835714Y-145550000D01*
X145930952Y-145502380D01*
X146169047Y-145502380D01*
X146264285Y-145550000D01*
X146311904Y-145597619D01*
X146359523Y-145692857D01*
X146359523Y-145788095D01*
X146311904Y-145930952D01*
X145740476Y-146502380D01*
X146359523Y-146502380D01*
X146740476Y-145597619D02*
X146788095Y-145550000D01*
X146883333Y-145502380D01*
X147121428Y-145502380D01*
X147216666Y-145550000D01*
X147264285Y-145597619D01*
X147311904Y-145692857D01*
X147311904Y-145788095D01*
X147264285Y-145930952D01*
X146692857Y-146502380D01*
X147311904Y-146502380D01*
%TO.C,R39*%
X156837142Y-161742380D02*
X156503809Y-161266190D01*
X156265714Y-161742380D02*
X156265714Y-160742380D01*
X156646666Y-160742380D01*
X156741904Y-160790000D01*
X156789523Y-160837619D01*
X156837142Y-160932857D01*
X156837142Y-161075714D01*
X156789523Y-161170952D01*
X156741904Y-161218571D01*
X156646666Y-161266190D01*
X156265714Y-161266190D01*
X157170476Y-160742380D02*
X157789523Y-160742380D01*
X157456190Y-161123333D01*
X157599047Y-161123333D01*
X157694285Y-161170952D01*
X157741904Y-161218571D01*
X157789523Y-161313809D01*
X157789523Y-161551904D01*
X157741904Y-161647142D01*
X157694285Y-161694761D01*
X157599047Y-161742380D01*
X157313333Y-161742380D01*
X157218095Y-161694761D01*
X157170476Y-161647142D01*
X158265714Y-161742380D02*
X158456190Y-161742380D01*
X158551428Y-161694761D01*
X158599047Y-161647142D01*
X158694285Y-161504285D01*
X158741904Y-161313809D01*
X158741904Y-160932857D01*
X158694285Y-160837619D01*
X158646666Y-160790000D01*
X158551428Y-160742380D01*
X158360952Y-160742380D01*
X158265714Y-160790000D01*
X158218095Y-160837619D01*
X158170476Y-160932857D01*
X158170476Y-161170952D01*
X158218095Y-161266190D01*
X158265714Y-161313809D01*
X158360952Y-161361428D01*
X158551428Y-161361428D01*
X158646666Y-161313809D01*
X158694285Y-161266190D01*
X158741904Y-161170952D01*
%TO.C,R28*%
X145407142Y-161742380D02*
X145073809Y-161266190D01*
X144835714Y-161742380D02*
X144835714Y-160742380D01*
X145216666Y-160742380D01*
X145311904Y-160790000D01*
X145359523Y-160837619D01*
X145407142Y-160932857D01*
X145407142Y-161075714D01*
X145359523Y-161170952D01*
X145311904Y-161218571D01*
X145216666Y-161266190D01*
X144835714Y-161266190D01*
X145788095Y-160837619D02*
X145835714Y-160790000D01*
X145930952Y-160742380D01*
X146169047Y-160742380D01*
X146264285Y-160790000D01*
X146311904Y-160837619D01*
X146359523Y-160932857D01*
X146359523Y-161028095D01*
X146311904Y-161170952D01*
X145740476Y-161742380D01*
X146359523Y-161742380D01*
X146930952Y-161170952D02*
X146835714Y-161123333D01*
X146788095Y-161075714D01*
X146740476Y-160980476D01*
X146740476Y-160932857D01*
X146788095Y-160837619D01*
X146835714Y-160790000D01*
X146930952Y-160742380D01*
X147121428Y-160742380D01*
X147216666Y-160790000D01*
X147264285Y-160837619D01*
X147311904Y-160932857D01*
X147311904Y-160980476D01*
X147264285Y-161075714D01*
X147216666Y-161123333D01*
X147121428Y-161170952D01*
X146930952Y-161170952D01*
X146835714Y-161218571D01*
X146788095Y-161266190D01*
X146740476Y-161361428D01*
X146740476Y-161551904D01*
X146788095Y-161647142D01*
X146835714Y-161694761D01*
X146930952Y-161742380D01*
X147121428Y-161742380D01*
X147216666Y-161694761D01*
X147264285Y-161647142D01*
X147311904Y-161551904D01*
X147311904Y-161361428D01*
X147264285Y-161266190D01*
X147216666Y-161218571D01*
X147121428Y-161170952D01*
%TO.C,J2*%
X113966666Y-167307380D02*
X113966666Y-168021666D01*
X113919047Y-168164523D01*
X113823809Y-168259761D01*
X113680952Y-168307380D01*
X113585714Y-168307380D01*
X114395238Y-167402619D02*
X114442857Y-167355000D01*
X114538095Y-167307380D01*
X114776190Y-167307380D01*
X114871428Y-167355000D01*
X114919047Y-167402619D01*
X114966666Y-167497857D01*
X114966666Y-167593095D01*
X114919047Y-167735952D01*
X114347619Y-168307380D01*
X114966666Y-168307380D01*
%TO.C,R23*%
X145407142Y-149042380D02*
X145073809Y-148566190D01*
X144835714Y-149042380D02*
X144835714Y-148042380D01*
X145216666Y-148042380D01*
X145311904Y-148090000D01*
X145359523Y-148137619D01*
X145407142Y-148232857D01*
X145407142Y-148375714D01*
X145359523Y-148470952D01*
X145311904Y-148518571D01*
X145216666Y-148566190D01*
X144835714Y-148566190D01*
X145788095Y-148137619D02*
X145835714Y-148090000D01*
X145930952Y-148042380D01*
X146169047Y-148042380D01*
X146264285Y-148090000D01*
X146311904Y-148137619D01*
X146359523Y-148232857D01*
X146359523Y-148328095D01*
X146311904Y-148470952D01*
X145740476Y-149042380D01*
X146359523Y-149042380D01*
X146692857Y-148042380D02*
X147311904Y-148042380D01*
X146978571Y-148423333D01*
X147121428Y-148423333D01*
X147216666Y-148470952D01*
X147264285Y-148518571D01*
X147311904Y-148613809D01*
X147311904Y-148851904D01*
X147264285Y-148947142D01*
X147216666Y-148994761D01*
X147121428Y-149042380D01*
X146835714Y-149042380D01*
X146740476Y-148994761D01*
X146692857Y-148947142D01*
%TO.C,R16*%
X109847142Y-151582380D02*
X109513809Y-151106190D01*
X109275714Y-151582380D02*
X109275714Y-150582380D01*
X109656666Y-150582380D01*
X109751904Y-150630000D01*
X109799523Y-150677619D01*
X109847142Y-150772857D01*
X109847142Y-150915714D01*
X109799523Y-151010952D01*
X109751904Y-151058571D01*
X109656666Y-151106190D01*
X109275714Y-151106190D01*
X110799523Y-151582380D02*
X110228095Y-151582380D01*
X110513809Y-151582380D02*
X110513809Y-150582380D01*
X110418571Y-150725238D01*
X110323333Y-150820476D01*
X110228095Y-150868095D01*
X111656666Y-150582380D02*
X111466190Y-150582380D01*
X111370952Y-150630000D01*
X111323333Y-150677619D01*
X111228095Y-150820476D01*
X111180476Y-151010952D01*
X111180476Y-151391904D01*
X111228095Y-151487142D01*
X111275714Y-151534761D01*
X111370952Y-151582380D01*
X111561428Y-151582380D01*
X111656666Y-151534761D01*
X111704285Y-151487142D01*
X111751904Y-151391904D01*
X111751904Y-151153809D01*
X111704285Y-151058571D01*
X111656666Y-151010952D01*
X111561428Y-150963333D01*
X111370952Y-150963333D01*
X111275714Y-151010952D01*
X111228095Y-151058571D01*
X111180476Y-151153809D01*
%TO.C,R3*%
X121118333Y-161742380D02*
X120785000Y-161266190D01*
X120546904Y-161742380D02*
X120546904Y-160742380D01*
X120927857Y-160742380D01*
X121023095Y-160790000D01*
X121070714Y-160837619D01*
X121118333Y-160932857D01*
X121118333Y-161075714D01*
X121070714Y-161170952D01*
X121023095Y-161218571D01*
X120927857Y-161266190D01*
X120546904Y-161266190D01*
X121451666Y-160742380D02*
X122070714Y-160742380D01*
X121737380Y-161123333D01*
X121880238Y-161123333D01*
X121975476Y-161170952D01*
X122023095Y-161218571D01*
X122070714Y-161313809D01*
X122070714Y-161551904D01*
X122023095Y-161647142D01*
X121975476Y-161694761D01*
X121880238Y-161742380D01*
X121594523Y-161742380D01*
X121499285Y-161694761D01*
X121451666Y-161647142D01*
%TO.C,J3*%
X153336666Y-167302380D02*
X153336666Y-168016666D01*
X153289047Y-168159523D01*
X153193809Y-168254761D01*
X153050952Y-168302380D01*
X152955714Y-168302380D01*
X153717619Y-167302380D02*
X154336666Y-167302380D01*
X154003333Y-167683333D01*
X154146190Y-167683333D01*
X154241428Y-167730952D01*
X154289047Y-167778571D01*
X154336666Y-167873809D01*
X154336666Y-168111904D01*
X154289047Y-168207142D01*
X154241428Y-168254761D01*
X154146190Y-168302380D01*
X153860476Y-168302380D01*
X153765238Y-168254761D01*
X153717619Y-168207142D01*
%TO.C,R25*%
X145407142Y-154122380D02*
X145073809Y-153646190D01*
X144835714Y-154122380D02*
X144835714Y-153122380D01*
X145216666Y-153122380D01*
X145311904Y-153170000D01*
X145359523Y-153217619D01*
X145407142Y-153312857D01*
X145407142Y-153455714D01*
X145359523Y-153550952D01*
X145311904Y-153598571D01*
X145216666Y-153646190D01*
X144835714Y-153646190D01*
X145788095Y-153217619D02*
X145835714Y-153170000D01*
X145930952Y-153122380D01*
X146169047Y-153122380D01*
X146264285Y-153170000D01*
X146311904Y-153217619D01*
X146359523Y-153312857D01*
X146359523Y-153408095D01*
X146311904Y-153550952D01*
X145740476Y-154122380D01*
X146359523Y-154122380D01*
X147264285Y-153122380D02*
X146788095Y-153122380D01*
X146740476Y-153598571D01*
X146788095Y-153550952D01*
X146883333Y-153503333D01*
X147121428Y-153503333D01*
X147216666Y-153550952D01*
X147264285Y-153598571D01*
X147311904Y-153693809D01*
X147311904Y-153931904D01*
X147264285Y-154027142D01*
X147216666Y-154074761D01*
X147121428Y-154122380D01*
X146883333Y-154122380D01*
X146788095Y-154074761D01*
X146740476Y-154027142D01*
%TO.C,R40*%
X156837142Y-164282380D02*
X156503809Y-163806190D01*
X156265714Y-164282380D02*
X156265714Y-163282380D01*
X156646666Y-163282380D01*
X156741904Y-163330000D01*
X156789523Y-163377619D01*
X156837142Y-163472857D01*
X156837142Y-163615714D01*
X156789523Y-163710952D01*
X156741904Y-163758571D01*
X156646666Y-163806190D01*
X156265714Y-163806190D01*
X157694285Y-163615714D02*
X157694285Y-164282380D01*
X157456190Y-163234761D02*
X157218095Y-163949047D01*
X157837142Y-163949047D01*
X158408571Y-163282380D02*
X158503809Y-163282380D01*
X158599047Y-163330000D01*
X158646666Y-163377619D01*
X158694285Y-163472857D01*
X158741904Y-163663333D01*
X158741904Y-163901428D01*
X158694285Y-164091904D01*
X158646666Y-164187142D01*
X158599047Y-164234761D01*
X158503809Y-164282380D01*
X158408571Y-164282380D01*
X158313333Y-164234761D01*
X158265714Y-164187142D01*
X158218095Y-164091904D01*
X158170476Y-163901428D01*
X158170476Y-163663333D01*
X158218095Y-163472857D01*
X158265714Y-163377619D01*
X158313333Y-163330000D01*
X158408571Y-163282380D01*
%TO.C,R18*%
X109847142Y-146502380D02*
X109513809Y-146026190D01*
X109275714Y-146502380D02*
X109275714Y-145502380D01*
X109656666Y-145502380D01*
X109751904Y-145550000D01*
X109799523Y-145597619D01*
X109847142Y-145692857D01*
X109847142Y-145835714D01*
X109799523Y-145930952D01*
X109751904Y-145978571D01*
X109656666Y-146026190D01*
X109275714Y-146026190D01*
X110799523Y-146502380D02*
X110228095Y-146502380D01*
X110513809Y-146502380D02*
X110513809Y-145502380D01*
X110418571Y-145645238D01*
X110323333Y-145740476D01*
X110228095Y-145788095D01*
X111370952Y-145930952D02*
X111275714Y-145883333D01*
X111228095Y-145835714D01*
X111180476Y-145740476D01*
X111180476Y-145692857D01*
X111228095Y-145597619D01*
X111275714Y-145550000D01*
X111370952Y-145502380D01*
X111561428Y-145502380D01*
X111656666Y-145550000D01*
X111704285Y-145597619D01*
X111751904Y-145692857D01*
X111751904Y-145740476D01*
X111704285Y-145835714D01*
X111656666Y-145883333D01*
X111561428Y-145930952D01*
X111370952Y-145930952D01*
X111275714Y-145978571D01*
X111228095Y-146026190D01*
X111180476Y-146121428D01*
X111180476Y-146311904D01*
X111228095Y-146407142D01*
X111275714Y-146454761D01*
X111370952Y-146502380D01*
X111561428Y-146502380D01*
X111656666Y-146454761D01*
X111704285Y-146407142D01*
X111751904Y-146311904D01*
X111751904Y-146121428D01*
X111704285Y-146026190D01*
X111656666Y-145978571D01*
X111561428Y-145930952D01*
%TO.C,R14*%
X109847142Y-156662380D02*
X109513809Y-156186190D01*
X109275714Y-156662380D02*
X109275714Y-155662380D01*
X109656666Y-155662380D01*
X109751904Y-155710000D01*
X109799523Y-155757619D01*
X109847142Y-155852857D01*
X109847142Y-155995714D01*
X109799523Y-156090952D01*
X109751904Y-156138571D01*
X109656666Y-156186190D01*
X109275714Y-156186190D01*
X110799523Y-156662380D02*
X110228095Y-156662380D01*
X110513809Y-156662380D02*
X110513809Y-155662380D01*
X110418571Y-155805238D01*
X110323333Y-155900476D01*
X110228095Y-155948095D01*
X111656666Y-155995714D02*
X111656666Y-156662380D01*
X111418571Y-155614761D02*
X111180476Y-156329047D01*
X111799523Y-156329047D01*
%TO.C,R31*%
X156837142Y-141422380D02*
X156503809Y-140946190D01*
X156265714Y-141422380D02*
X156265714Y-140422380D01*
X156646666Y-140422380D01*
X156741904Y-140470000D01*
X156789523Y-140517619D01*
X156837142Y-140612857D01*
X156837142Y-140755714D01*
X156789523Y-140850952D01*
X156741904Y-140898571D01*
X156646666Y-140946190D01*
X156265714Y-140946190D01*
X157170476Y-140422380D02*
X157789523Y-140422380D01*
X157456190Y-140803333D01*
X157599047Y-140803333D01*
X157694285Y-140850952D01*
X157741904Y-140898571D01*
X157789523Y-140993809D01*
X157789523Y-141231904D01*
X157741904Y-141327142D01*
X157694285Y-141374761D01*
X157599047Y-141422380D01*
X157313333Y-141422380D01*
X157218095Y-141374761D01*
X157170476Y-141327142D01*
X158741904Y-141422380D02*
X158170476Y-141422380D01*
X158456190Y-141422380D02*
X158456190Y-140422380D01*
X158360952Y-140565238D01*
X158265714Y-140660476D01*
X158170476Y-140708095D01*
%TO.C,R19*%
X109847142Y-143962380D02*
X109513809Y-143486190D01*
X109275714Y-143962380D02*
X109275714Y-142962380D01*
X109656666Y-142962380D01*
X109751904Y-143010000D01*
X109799523Y-143057619D01*
X109847142Y-143152857D01*
X109847142Y-143295714D01*
X109799523Y-143390952D01*
X109751904Y-143438571D01*
X109656666Y-143486190D01*
X109275714Y-143486190D01*
X110799523Y-143962380D02*
X110228095Y-143962380D01*
X110513809Y-143962380D02*
X110513809Y-142962380D01*
X110418571Y-143105238D01*
X110323333Y-143200476D01*
X110228095Y-143248095D01*
X111275714Y-143962380D02*
X111466190Y-143962380D01*
X111561428Y-143914761D01*
X111609047Y-143867142D01*
X111704285Y-143724285D01*
X111751904Y-143533809D01*
X111751904Y-143152857D01*
X111704285Y-143057619D01*
X111656666Y-143010000D01*
X111561428Y-142962380D01*
X111370952Y-142962380D01*
X111275714Y-143010000D01*
X111228095Y-143057619D01*
X111180476Y-143152857D01*
X111180476Y-143390952D01*
X111228095Y-143486190D01*
X111275714Y-143533809D01*
X111370952Y-143581428D01*
X111561428Y-143581428D01*
X111656666Y-143533809D01*
X111704285Y-143486190D01*
X111751904Y-143390952D01*
%TO.C,R11*%
X109847142Y-164282380D02*
X109513809Y-163806190D01*
X109275714Y-164282380D02*
X109275714Y-163282380D01*
X109656666Y-163282380D01*
X109751904Y-163330000D01*
X109799523Y-163377619D01*
X109847142Y-163472857D01*
X109847142Y-163615714D01*
X109799523Y-163710952D01*
X109751904Y-163758571D01*
X109656666Y-163806190D01*
X109275714Y-163806190D01*
X110799523Y-164282380D02*
X110228095Y-164282380D01*
X110513809Y-164282380D02*
X110513809Y-163282380D01*
X110418571Y-163425238D01*
X110323333Y-163520476D01*
X110228095Y-163568095D01*
X111751904Y-164282380D02*
X111180476Y-164282380D01*
X111466190Y-164282380D02*
X111466190Y-163282380D01*
X111370952Y-163425238D01*
X111275714Y-163520476D01*
X111180476Y-163568095D01*
%TO.C,R33*%
X156837142Y-146502380D02*
X156503809Y-146026190D01*
X156265714Y-146502380D02*
X156265714Y-145502380D01*
X156646666Y-145502380D01*
X156741904Y-145550000D01*
X156789523Y-145597619D01*
X156837142Y-145692857D01*
X156837142Y-145835714D01*
X156789523Y-145930952D01*
X156741904Y-145978571D01*
X156646666Y-146026190D01*
X156265714Y-146026190D01*
X157170476Y-145502380D02*
X157789523Y-145502380D01*
X157456190Y-145883333D01*
X157599047Y-145883333D01*
X157694285Y-145930952D01*
X157741904Y-145978571D01*
X157789523Y-146073809D01*
X157789523Y-146311904D01*
X157741904Y-146407142D01*
X157694285Y-146454761D01*
X157599047Y-146502380D01*
X157313333Y-146502380D01*
X157218095Y-146454761D01*
X157170476Y-146407142D01*
X158122857Y-145502380D02*
X158741904Y-145502380D01*
X158408571Y-145883333D01*
X158551428Y-145883333D01*
X158646666Y-145930952D01*
X158694285Y-145978571D01*
X158741904Y-146073809D01*
X158741904Y-146311904D01*
X158694285Y-146407142D01*
X158646666Y-146454761D01*
X158551428Y-146502380D01*
X158265714Y-146502380D01*
X158170476Y-146454761D01*
X158122857Y-146407142D01*
%TO.C,J4*%
X112696666Y-127932380D02*
X112696666Y-128646666D01*
X112649047Y-128789523D01*
X112553809Y-128884761D01*
X112410952Y-128932380D01*
X112315714Y-128932380D01*
X113601428Y-128265714D02*
X113601428Y-128932380D01*
X113363333Y-127884761D02*
X113125238Y-128599047D01*
X113744285Y-128599047D01*
%TO.C,R10*%
X120642142Y-143962380D02*
X120308809Y-143486190D01*
X120070714Y-143962380D02*
X120070714Y-142962380D01*
X120451666Y-142962380D01*
X120546904Y-143010000D01*
X120594523Y-143057619D01*
X120642142Y-143152857D01*
X120642142Y-143295714D01*
X120594523Y-143390952D01*
X120546904Y-143438571D01*
X120451666Y-143486190D01*
X120070714Y-143486190D01*
X121594523Y-143962380D02*
X121023095Y-143962380D01*
X121308809Y-143962380D02*
X121308809Y-142962380D01*
X121213571Y-143105238D01*
X121118333Y-143200476D01*
X121023095Y-143248095D01*
X122213571Y-142962380D02*
X122308809Y-142962380D01*
X122404047Y-143010000D01*
X122451666Y-143057619D01*
X122499285Y-143152857D01*
X122546904Y-143343333D01*
X122546904Y-143581428D01*
X122499285Y-143771904D01*
X122451666Y-143867142D01*
X122404047Y-143914761D01*
X122308809Y-143962380D01*
X122213571Y-143962380D01*
X122118333Y-143914761D01*
X122070714Y-143867142D01*
X122023095Y-143771904D01*
X121975476Y-143581428D01*
X121975476Y-143343333D01*
X122023095Y-143152857D01*
X122070714Y-143057619D01*
X122118333Y-143010000D01*
X122213571Y-142962380D01*
%TO.C,R13*%
X109847142Y-159202380D02*
X109513809Y-158726190D01*
X109275714Y-159202380D02*
X109275714Y-158202380D01*
X109656666Y-158202380D01*
X109751904Y-158250000D01*
X109799523Y-158297619D01*
X109847142Y-158392857D01*
X109847142Y-158535714D01*
X109799523Y-158630952D01*
X109751904Y-158678571D01*
X109656666Y-158726190D01*
X109275714Y-158726190D01*
X110799523Y-159202380D02*
X110228095Y-159202380D01*
X110513809Y-159202380D02*
X110513809Y-158202380D01*
X110418571Y-158345238D01*
X110323333Y-158440476D01*
X110228095Y-158488095D01*
X111132857Y-158202380D02*
X111751904Y-158202380D01*
X111418571Y-158583333D01*
X111561428Y-158583333D01*
X111656666Y-158630952D01*
X111704285Y-158678571D01*
X111751904Y-158773809D01*
X111751904Y-159011904D01*
X111704285Y-159107142D01*
X111656666Y-159154761D01*
X111561428Y-159202380D01*
X111275714Y-159202380D01*
X111180476Y-159154761D01*
X111132857Y-159107142D01*
%TO.C,R15*%
X109847142Y-154122380D02*
X109513809Y-153646190D01*
X109275714Y-154122380D02*
X109275714Y-153122380D01*
X109656666Y-153122380D01*
X109751904Y-153170000D01*
X109799523Y-153217619D01*
X109847142Y-153312857D01*
X109847142Y-153455714D01*
X109799523Y-153550952D01*
X109751904Y-153598571D01*
X109656666Y-153646190D01*
X109275714Y-153646190D01*
X110799523Y-154122380D02*
X110228095Y-154122380D01*
X110513809Y-154122380D02*
X110513809Y-153122380D01*
X110418571Y-153265238D01*
X110323333Y-153360476D01*
X110228095Y-153408095D01*
X111704285Y-153122380D02*
X111228095Y-153122380D01*
X111180476Y-153598571D01*
X111228095Y-153550952D01*
X111323333Y-153503333D01*
X111561428Y-153503333D01*
X111656666Y-153550952D01*
X111704285Y-153598571D01*
X111751904Y-153693809D01*
X111751904Y-153931904D01*
X111704285Y-154027142D01*
X111656666Y-154074761D01*
X111561428Y-154122380D01*
X111323333Y-154122380D01*
X111228095Y-154074761D01*
X111180476Y-154027142D01*
%TO.C,R21*%
X145407142Y-143962380D02*
X145073809Y-143486190D01*
X144835714Y-143962380D02*
X144835714Y-142962380D01*
X145216666Y-142962380D01*
X145311904Y-143010000D01*
X145359523Y-143057619D01*
X145407142Y-143152857D01*
X145407142Y-143295714D01*
X145359523Y-143390952D01*
X145311904Y-143438571D01*
X145216666Y-143486190D01*
X144835714Y-143486190D01*
X145788095Y-143057619D02*
X145835714Y-143010000D01*
X145930952Y-142962380D01*
X146169047Y-142962380D01*
X146264285Y-143010000D01*
X146311904Y-143057619D01*
X146359523Y-143152857D01*
X146359523Y-143248095D01*
X146311904Y-143390952D01*
X145740476Y-143962380D01*
X146359523Y-143962380D01*
X147311904Y-143962380D02*
X146740476Y-143962380D01*
X147026190Y-143962380D02*
X147026190Y-142962380D01*
X146930952Y-143105238D01*
X146835714Y-143200476D01*
X146740476Y-143248095D01*
%TO.C,R26*%
X145407142Y-156662380D02*
X145073809Y-156186190D01*
X144835714Y-156662380D02*
X144835714Y-155662380D01*
X145216666Y-155662380D01*
X145311904Y-155710000D01*
X145359523Y-155757619D01*
X145407142Y-155852857D01*
X145407142Y-155995714D01*
X145359523Y-156090952D01*
X145311904Y-156138571D01*
X145216666Y-156186190D01*
X144835714Y-156186190D01*
X145788095Y-155757619D02*
X145835714Y-155710000D01*
X145930952Y-155662380D01*
X146169047Y-155662380D01*
X146264285Y-155710000D01*
X146311904Y-155757619D01*
X146359523Y-155852857D01*
X146359523Y-155948095D01*
X146311904Y-156090952D01*
X145740476Y-156662380D01*
X146359523Y-156662380D01*
X147216666Y-155662380D02*
X147026190Y-155662380D01*
X146930952Y-155710000D01*
X146883333Y-155757619D01*
X146788095Y-155900476D01*
X146740476Y-156090952D01*
X146740476Y-156471904D01*
X146788095Y-156567142D01*
X146835714Y-156614761D01*
X146930952Y-156662380D01*
X147121428Y-156662380D01*
X147216666Y-156614761D01*
X147264285Y-156567142D01*
X147311904Y-156471904D01*
X147311904Y-156233809D01*
X147264285Y-156138571D01*
X147216666Y-156090952D01*
X147121428Y-156043333D01*
X146930952Y-156043333D01*
X146835714Y-156090952D01*
X146788095Y-156138571D01*
X146740476Y-156233809D01*
%TO.C,R38*%
X156837142Y-159202380D02*
X156503809Y-158726190D01*
X156265714Y-159202380D02*
X156265714Y-158202380D01*
X156646666Y-158202380D01*
X156741904Y-158250000D01*
X156789523Y-158297619D01*
X156837142Y-158392857D01*
X156837142Y-158535714D01*
X156789523Y-158630952D01*
X156741904Y-158678571D01*
X156646666Y-158726190D01*
X156265714Y-158726190D01*
X157170476Y-158202380D02*
X157789523Y-158202380D01*
X157456190Y-158583333D01*
X157599047Y-158583333D01*
X157694285Y-158630952D01*
X157741904Y-158678571D01*
X157789523Y-158773809D01*
X157789523Y-159011904D01*
X157741904Y-159107142D01*
X157694285Y-159154761D01*
X157599047Y-159202380D01*
X157313333Y-159202380D01*
X157218095Y-159154761D01*
X157170476Y-159107142D01*
X158360952Y-158630952D02*
X158265714Y-158583333D01*
X158218095Y-158535714D01*
X158170476Y-158440476D01*
X158170476Y-158392857D01*
X158218095Y-158297619D01*
X158265714Y-158250000D01*
X158360952Y-158202380D01*
X158551428Y-158202380D01*
X158646666Y-158250000D01*
X158694285Y-158297619D01*
X158741904Y-158392857D01*
X158741904Y-158440476D01*
X158694285Y-158535714D01*
X158646666Y-158583333D01*
X158551428Y-158630952D01*
X158360952Y-158630952D01*
X158265714Y-158678571D01*
X158218095Y-158726190D01*
X158170476Y-158821428D01*
X158170476Y-159011904D01*
X158218095Y-159107142D01*
X158265714Y-159154761D01*
X158360952Y-159202380D01*
X158551428Y-159202380D01*
X158646666Y-159154761D01*
X158694285Y-159107142D01*
X158741904Y-159011904D01*
X158741904Y-158821428D01*
X158694285Y-158726190D01*
X158646666Y-158678571D01*
X158551428Y-158630952D01*
%TO.C,R5*%
X121118333Y-156662380D02*
X120785000Y-156186190D01*
X120546904Y-156662380D02*
X120546904Y-155662380D01*
X120927857Y-155662380D01*
X121023095Y-155710000D01*
X121070714Y-155757619D01*
X121118333Y-155852857D01*
X121118333Y-155995714D01*
X121070714Y-156090952D01*
X121023095Y-156138571D01*
X120927857Y-156186190D01*
X120546904Y-156186190D01*
X122023095Y-155662380D02*
X121546904Y-155662380D01*
X121499285Y-156138571D01*
X121546904Y-156090952D01*
X121642142Y-156043333D01*
X121880238Y-156043333D01*
X121975476Y-156090952D01*
X122023095Y-156138571D01*
X122070714Y-156233809D01*
X122070714Y-156471904D01*
X122023095Y-156567142D01*
X121975476Y-156614761D01*
X121880238Y-156662380D01*
X121642142Y-156662380D01*
X121546904Y-156614761D01*
X121499285Y-156567142D01*
%TO.C,R4*%
X121118333Y-159202380D02*
X120785000Y-158726190D01*
X120546904Y-159202380D02*
X120546904Y-158202380D01*
X120927857Y-158202380D01*
X121023095Y-158250000D01*
X121070714Y-158297619D01*
X121118333Y-158392857D01*
X121118333Y-158535714D01*
X121070714Y-158630952D01*
X121023095Y-158678571D01*
X120927857Y-158726190D01*
X120546904Y-158726190D01*
X121975476Y-158535714D02*
X121975476Y-159202380D01*
X121737380Y-158154761D02*
X121499285Y-158869047D01*
X122118333Y-158869047D01*
%TO.C,R32*%
X156837142Y-143962380D02*
X156503809Y-143486190D01*
X156265714Y-143962380D02*
X156265714Y-142962380D01*
X156646666Y-142962380D01*
X156741904Y-143010000D01*
X156789523Y-143057619D01*
X156837142Y-143152857D01*
X156837142Y-143295714D01*
X156789523Y-143390952D01*
X156741904Y-143438571D01*
X156646666Y-143486190D01*
X156265714Y-143486190D01*
X157170476Y-142962380D02*
X157789523Y-142962380D01*
X157456190Y-143343333D01*
X157599047Y-143343333D01*
X157694285Y-143390952D01*
X157741904Y-143438571D01*
X157789523Y-143533809D01*
X157789523Y-143771904D01*
X157741904Y-143867142D01*
X157694285Y-143914761D01*
X157599047Y-143962380D01*
X157313333Y-143962380D01*
X157218095Y-143914761D01*
X157170476Y-143867142D01*
X158170476Y-143057619D02*
X158218095Y-143010000D01*
X158313333Y-142962380D01*
X158551428Y-142962380D01*
X158646666Y-143010000D01*
X158694285Y-143057619D01*
X158741904Y-143152857D01*
X158741904Y-143248095D01*
X158694285Y-143390952D01*
X158122857Y-143962380D01*
X158741904Y-143962380D01*
%TO.C,R27*%
X145407142Y-159202380D02*
X145073809Y-158726190D01*
X144835714Y-159202380D02*
X144835714Y-158202380D01*
X145216666Y-158202380D01*
X145311904Y-158250000D01*
X145359523Y-158297619D01*
X145407142Y-158392857D01*
X145407142Y-158535714D01*
X145359523Y-158630952D01*
X145311904Y-158678571D01*
X145216666Y-158726190D01*
X144835714Y-158726190D01*
X145788095Y-158297619D02*
X145835714Y-158250000D01*
X145930952Y-158202380D01*
X146169047Y-158202380D01*
X146264285Y-158250000D01*
X146311904Y-158297619D01*
X146359523Y-158392857D01*
X146359523Y-158488095D01*
X146311904Y-158630952D01*
X145740476Y-159202380D01*
X146359523Y-159202380D01*
X146692857Y-158202380D02*
X147359523Y-158202380D01*
X146930952Y-159202380D01*
%TO.C,R20*%
X109847142Y-141422380D02*
X109513809Y-140946190D01*
X109275714Y-141422380D02*
X109275714Y-140422380D01*
X109656666Y-140422380D01*
X109751904Y-140470000D01*
X109799523Y-140517619D01*
X109847142Y-140612857D01*
X109847142Y-140755714D01*
X109799523Y-140850952D01*
X109751904Y-140898571D01*
X109656666Y-140946190D01*
X109275714Y-140946190D01*
X110228095Y-140517619D02*
X110275714Y-140470000D01*
X110370952Y-140422380D01*
X110609047Y-140422380D01*
X110704285Y-140470000D01*
X110751904Y-140517619D01*
X110799523Y-140612857D01*
X110799523Y-140708095D01*
X110751904Y-140850952D01*
X110180476Y-141422380D01*
X110799523Y-141422380D01*
X111418571Y-140422380D02*
X111513809Y-140422380D01*
X111609047Y-140470000D01*
X111656666Y-140517619D01*
X111704285Y-140612857D01*
X111751904Y-140803333D01*
X111751904Y-141041428D01*
X111704285Y-141231904D01*
X111656666Y-141327142D01*
X111609047Y-141374761D01*
X111513809Y-141422380D01*
X111418571Y-141422380D01*
X111323333Y-141374761D01*
X111275714Y-141327142D01*
X111228095Y-141231904D01*
X111180476Y-141041428D01*
X111180476Y-140803333D01*
X111228095Y-140612857D01*
X111275714Y-140517619D01*
X111323333Y-140470000D01*
X111418571Y-140422380D01*
%TO.C,R35*%
X156837142Y-151582380D02*
X156503809Y-151106190D01*
X156265714Y-151582380D02*
X156265714Y-150582380D01*
X156646666Y-150582380D01*
X156741904Y-150630000D01*
X156789523Y-150677619D01*
X156837142Y-150772857D01*
X156837142Y-150915714D01*
X156789523Y-151010952D01*
X156741904Y-151058571D01*
X156646666Y-151106190D01*
X156265714Y-151106190D01*
X157170476Y-150582380D02*
X157789523Y-150582380D01*
X157456190Y-150963333D01*
X157599047Y-150963333D01*
X157694285Y-151010952D01*
X157741904Y-151058571D01*
X157789523Y-151153809D01*
X157789523Y-151391904D01*
X157741904Y-151487142D01*
X157694285Y-151534761D01*
X157599047Y-151582380D01*
X157313333Y-151582380D01*
X157218095Y-151534761D01*
X157170476Y-151487142D01*
X158694285Y-150582380D02*
X158218095Y-150582380D01*
X158170476Y-151058571D01*
X158218095Y-151010952D01*
X158313333Y-150963333D01*
X158551428Y-150963333D01*
X158646666Y-151010952D01*
X158694285Y-151058571D01*
X158741904Y-151153809D01*
X158741904Y-151391904D01*
X158694285Y-151487142D01*
X158646666Y-151534761D01*
X158551428Y-151582380D01*
X158313333Y-151582380D01*
X158218095Y-151534761D01*
X158170476Y-151487142D01*
%TO.C,R24*%
X145407142Y-151582380D02*
X145073809Y-151106190D01*
X144835714Y-151582380D02*
X144835714Y-150582380D01*
X145216666Y-150582380D01*
X145311904Y-150630000D01*
X145359523Y-150677619D01*
X145407142Y-150772857D01*
X145407142Y-150915714D01*
X145359523Y-151010952D01*
X145311904Y-151058571D01*
X145216666Y-151106190D01*
X144835714Y-151106190D01*
X145788095Y-150677619D02*
X145835714Y-150630000D01*
X145930952Y-150582380D01*
X146169047Y-150582380D01*
X146264285Y-150630000D01*
X146311904Y-150677619D01*
X146359523Y-150772857D01*
X146359523Y-150868095D01*
X146311904Y-151010952D01*
X145740476Y-151582380D01*
X146359523Y-151582380D01*
X147216666Y-150915714D02*
X147216666Y-151582380D01*
X146978571Y-150534761D02*
X146740476Y-151249047D01*
X147359523Y-151249047D01*
%TO.C,J5*%
X154606666Y-127932380D02*
X154606666Y-128646666D01*
X154559047Y-128789523D01*
X154463809Y-128884761D01*
X154320952Y-128932380D01*
X154225714Y-128932380D01*
X155559047Y-127932380D02*
X155082857Y-127932380D01*
X155035238Y-128408571D01*
X155082857Y-128360952D01*
X155178095Y-128313333D01*
X155416190Y-128313333D01*
X155511428Y-128360952D01*
X155559047Y-128408571D01*
X155606666Y-128503809D01*
X155606666Y-128741904D01*
X155559047Y-128837142D01*
X155511428Y-128884761D01*
X155416190Y-128932380D01*
X155178095Y-128932380D01*
X155082857Y-128884761D01*
X155035238Y-128837142D01*
%TO.C,R6*%
X121118333Y-154122380D02*
X120785000Y-153646190D01*
X120546904Y-154122380D02*
X120546904Y-153122380D01*
X120927857Y-153122380D01*
X121023095Y-153170000D01*
X121070714Y-153217619D01*
X121118333Y-153312857D01*
X121118333Y-153455714D01*
X121070714Y-153550952D01*
X121023095Y-153598571D01*
X120927857Y-153646190D01*
X120546904Y-153646190D01*
X121975476Y-153122380D02*
X121785000Y-153122380D01*
X121689761Y-153170000D01*
X121642142Y-153217619D01*
X121546904Y-153360476D01*
X121499285Y-153550952D01*
X121499285Y-153931904D01*
X121546904Y-154027142D01*
X121594523Y-154074761D01*
X121689761Y-154122380D01*
X121880238Y-154122380D01*
X121975476Y-154074761D01*
X122023095Y-154027142D01*
X122070714Y-153931904D01*
X122070714Y-153693809D01*
X122023095Y-153598571D01*
X121975476Y-153550952D01*
X121880238Y-153503333D01*
X121689761Y-153503333D01*
X121594523Y-153550952D01*
X121546904Y-153598571D01*
X121499285Y-153693809D01*
%TO.C,R1*%
X121118333Y-166822380D02*
X120785000Y-166346190D01*
X120546904Y-166822380D02*
X120546904Y-165822380D01*
X120927857Y-165822380D01*
X121023095Y-165870000D01*
X121070714Y-165917619D01*
X121118333Y-166012857D01*
X121118333Y-166155714D01*
X121070714Y-166250952D01*
X121023095Y-166298571D01*
X120927857Y-166346190D01*
X120546904Y-166346190D01*
X122070714Y-166822380D02*
X121499285Y-166822380D01*
X121785000Y-166822380D02*
X121785000Y-165822380D01*
X121689761Y-165965238D01*
X121594523Y-166060476D01*
X121499285Y-166108095D01*
%TO.C,R17*%
X109847142Y-149042380D02*
X109513809Y-148566190D01*
X109275714Y-149042380D02*
X109275714Y-148042380D01*
X109656666Y-148042380D01*
X109751904Y-148090000D01*
X109799523Y-148137619D01*
X109847142Y-148232857D01*
X109847142Y-148375714D01*
X109799523Y-148470952D01*
X109751904Y-148518571D01*
X109656666Y-148566190D01*
X109275714Y-148566190D01*
X110799523Y-149042380D02*
X110228095Y-149042380D01*
X110513809Y-149042380D02*
X110513809Y-148042380D01*
X110418571Y-148185238D01*
X110323333Y-148280476D01*
X110228095Y-148328095D01*
X111132857Y-148042380D02*
X111799523Y-148042380D01*
X111370952Y-149042380D01*
%TO.C,R9*%
X121118333Y-146502380D02*
X120785000Y-146026190D01*
X120546904Y-146502380D02*
X120546904Y-145502380D01*
X120927857Y-145502380D01*
X121023095Y-145550000D01*
X121070714Y-145597619D01*
X121118333Y-145692857D01*
X121118333Y-145835714D01*
X121070714Y-145930952D01*
X121023095Y-145978571D01*
X120927857Y-146026190D01*
X120546904Y-146026190D01*
X121594523Y-146502380D02*
X121785000Y-146502380D01*
X121880238Y-146454761D01*
X121927857Y-146407142D01*
X122023095Y-146264285D01*
X122070714Y-146073809D01*
X122070714Y-145692857D01*
X122023095Y-145597619D01*
X121975476Y-145550000D01*
X121880238Y-145502380D01*
X121689761Y-145502380D01*
X121594523Y-145550000D01*
X121546904Y-145597619D01*
X121499285Y-145692857D01*
X121499285Y-145930952D01*
X121546904Y-146026190D01*
X121594523Y-146073809D01*
X121689761Y-146121428D01*
X121880238Y-146121428D01*
X121975476Y-146073809D01*
X122023095Y-146026190D01*
X122070714Y-145930952D01*
%TO.C,R2*%
X121118333Y-164282380D02*
X120785000Y-163806190D01*
X120546904Y-164282380D02*
X120546904Y-163282380D01*
X120927857Y-163282380D01*
X121023095Y-163330000D01*
X121070714Y-163377619D01*
X121118333Y-163472857D01*
X121118333Y-163615714D01*
X121070714Y-163710952D01*
X121023095Y-163758571D01*
X120927857Y-163806190D01*
X120546904Y-163806190D01*
X121499285Y-163377619D02*
X121546904Y-163330000D01*
X121642142Y-163282380D01*
X121880238Y-163282380D01*
X121975476Y-163330000D01*
X122023095Y-163377619D01*
X122070714Y-163472857D01*
X122070714Y-163568095D01*
X122023095Y-163710952D01*
X121451666Y-164282380D01*
X122070714Y-164282380D01*
%TO.C,R8*%
X121118333Y-149042380D02*
X120785000Y-148566190D01*
X120546904Y-149042380D02*
X120546904Y-148042380D01*
X120927857Y-148042380D01*
X121023095Y-148090000D01*
X121070714Y-148137619D01*
X121118333Y-148232857D01*
X121118333Y-148375714D01*
X121070714Y-148470952D01*
X121023095Y-148518571D01*
X120927857Y-148566190D01*
X120546904Y-148566190D01*
X121689761Y-148470952D02*
X121594523Y-148423333D01*
X121546904Y-148375714D01*
X121499285Y-148280476D01*
X121499285Y-148232857D01*
X121546904Y-148137619D01*
X121594523Y-148090000D01*
X121689761Y-148042380D01*
X121880238Y-148042380D01*
X121975476Y-148090000D01*
X122023095Y-148137619D01*
X122070714Y-148232857D01*
X122070714Y-148280476D01*
X122023095Y-148375714D01*
X121975476Y-148423333D01*
X121880238Y-148470952D01*
X121689761Y-148470952D01*
X121594523Y-148518571D01*
X121546904Y-148566190D01*
X121499285Y-148661428D01*
X121499285Y-148851904D01*
X121546904Y-148947142D01*
X121594523Y-148994761D01*
X121689761Y-149042380D01*
X121880238Y-149042380D01*
X121975476Y-148994761D01*
X122023095Y-148947142D01*
X122070714Y-148851904D01*
X122070714Y-148661428D01*
X122023095Y-148566190D01*
X121975476Y-148518571D01*
X121880238Y-148470952D01*
%TO.C,R34*%
X156837142Y-149042380D02*
X156503809Y-148566190D01*
X156265714Y-149042380D02*
X156265714Y-148042380D01*
X156646666Y-148042380D01*
X156741904Y-148090000D01*
X156789523Y-148137619D01*
X156837142Y-148232857D01*
X156837142Y-148375714D01*
X156789523Y-148470952D01*
X156741904Y-148518571D01*
X156646666Y-148566190D01*
X156265714Y-148566190D01*
X157170476Y-148042380D02*
X157789523Y-148042380D01*
X157456190Y-148423333D01*
X157599047Y-148423333D01*
X157694285Y-148470952D01*
X157741904Y-148518571D01*
X157789523Y-148613809D01*
X157789523Y-148851904D01*
X157741904Y-148947142D01*
X157694285Y-148994761D01*
X157599047Y-149042380D01*
X157313333Y-149042380D01*
X157218095Y-148994761D01*
X157170476Y-148947142D01*
X158646666Y-148375714D02*
X158646666Y-149042380D01*
X158408571Y-147994761D02*
X158170476Y-148709047D01*
X158789523Y-148709047D01*
%TO.C,R37*%
X156837142Y-156662380D02*
X156503809Y-156186190D01*
X156265714Y-156662380D02*
X156265714Y-155662380D01*
X156646666Y-155662380D01*
X156741904Y-155710000D01*
X156789523Y-155757619D01*
X156837142Y-155852857D01*
X156837142Y-155995714D01*
X156789523Y-156090952D01*
X156741904Y-156138571D01*
X156646666Y-156186190D01*
X156265714Y-156186190D01*
X157170476Y-155662380D02*
X157789523Y-155662380D01*
X157456190Y-156043333D01*
X157599047Y-156043333D01*
X157694285Y-156090952D01*
X157741904Y-156138571D01*
X157789523Y-156233809D01*
X157789523Y-156471904D01*
X157741904Y-156567142D01*
X157694285Y-156614761D01*
X157599047Y-156662380D01*
X157313333Y-156662380D01*
X157218095Y-156614761D01*
X157170476Y-156567142D01*
X158122857Y-155662380D02*
X158789523Y-155662380D01*
X158360952Y-156662380D01*
%TO.C,R30*%
X145407142Y-166822380D02*
X145073809Y-166346190D01*
X144835714Y-166822380D02*
X144835714Y-165822380D01*
X145216666Y-165822380D01*
X145311904Y-165870000D01*
X145359523Y-165917619D01*
X145407142Y-166012857D01*
X145407142Y-166155714D01*
X145359523Y-166250952D01*
X145311904Y-166298571D01*
X145216666Y-166346190D01*
X144835714Y-166346190D01*
X145740476Y-165822380D02*
X146359523Y-165822380D01*
X146026190Y-166203333D01*
X146169047Y-166203333D01*
X146264285Y-166250952D01*
X146311904Y-166298571D01*
X146359523Y-166393809D01*
X146359523Y-166631904D01*
X146311904Y-166727142D01*
X146264285Y-166774761D01*
X146169047Y-166822380D01*
X145883333Y-166822380D01*
X145788095Y-166774761D01*
X145740476Y-166727142D01*
X146978571Y-165822380D02*
X147073809Y-165822380D01*
X147169047Y-165870000D01*
X147216666Y-165917619D01*
X147264285Y-166012857D01*
X147311904Y-166203333D01*
X147311904Y-166441428D01*
X147264285Y-166631904D01*
X147216666Y-166727142D01*
X147169047Y-166774761D01*
X147073809Y-166822380D01*
X146978571Y-166822380D01*
X146883333Y-166774761D01*
X146835714Y-166727142D01*
X146788095Y-166631904D01*
X146740476Y-166441428D01*
X146740476Y-166203333D01*
X146788095Y-166012857D01*
X146835714Y-165917619D01*
X146883333Y-165870000D01*
X146978571Y-165822380D01*
%TO.C,R12*%
X109847142Y-161742380D02*
X109513809Y-161266190D01*
X109275714Y-161742380D02*
X109275714Y-160742380D01*
X109656666Y-160742380D01*
X109751904Y-160790000D01*
X109799523Y-160837619D01*
X109847142Y-160932857D01*
X109847142Y-161075714D01*
X109799523Y-161170952D01*
X109751904Y-161218571D01*
X109656666Y-161266190D01*
X109275714Y-161266190D01*
X110799523Y-161742380D02*
X110228095Y-161742380D01*
X110513809Y-161742380D02*
X110513809Y-160742380D01*
X110418571Y-160885238D01*
X110323333Y-160980476D01*
X110228095Y-161028095D01*
X111180476Y-160837619D02*
X111228095Y-160790000D01*
X111323333Y-160742380D01*
X111561428Y-160742380D01*
X111656666Y-160790000D01*
X111704285Y-160837619D01*
X111751904Y-160932857D01*
X111751904Y-161028095D01*
X111704285Y-161170952D01*
X111132857Y-161742380D01*
X111751904Y-161742380D01*
%TO.C,R36*%
X156837142Y-154122380D02*
X156503809Y-153646190D01*
X156265714Y-154122380D02*
X156265714Y-153122380D01*
X156646666Y-153122380D01*
X156741904Y-153170000D01*
X156789523Y-153217619D01*
X156837142Y-153312857D01*
X156837142Y-153455714D01*
X156789523Y-153550952D01*
X156741904Y-153598571D01*
X156646666Y-153646190D01*
X156265714Y-153646190D01*
X157170476Y-153122380D02*
X157789523Y-153122380D01*
X157456190Y-153503333D01*
X157599047Y-153503333D01*
X157694285Y-153550952D01*
X157741904Y-153598571D01*
X157789523Y-153693809D01*
X157789523Y-153931904D01*
X157741904Y-154027142D01*
X157694285Y-154074761D01*
X157599047Y-154122380D01*
X157313333Y-154122380D01*
X157218095Y-154074761D01*
X157170476Y-154027142D01*
X158646666Y-153122380D02*
X158456190Y-153122380D01*
X158360952Y-153170000D01*
X158313333Y-153217619D01*
X158218095Y-153360476D01*
X158170476Y-153550952D01*
X158170476Y-153931904D01*
X158218095Y-154027142D01*
X158265714Y-154074761D01*
X158360952Y-154122380D01*
X158551428Y-154122380D01*
X158646666Y-154074761D01*
X158694285Y-154027142D01*
X158741904Y-153931904D01*
X158741904Y-153693809D01*
X158694285Y-153598571D01*
X158646666Y-153550952D01*
X158551428Y-153503333D01*
X158360952Y-153503333D01*
X158265714Y-153550952D01*
X158218095Y-153598571D01*
X158170476Y-153693809D01*
D13*
%TO.C,J1*%
X126468000Y-130840000D02*
X127428000Y-129880000D01*
X126468000Y-130840000D02*
X126468000Y-131240000D01*
X127428000Y-129880000D02*
X127688000Y-129880000D01*
D14*
%TO.C,R29*%
X149605276Y-164352500D02*
X150114724Y-164352500D01*
X149605276Y-163307500D02*
X150114724Y-163307500D01*
%TO.C,R7*%
X118364724Y-150607500D02*
X117855276Y-150607500D01*
X118364724Y-151652500D02*
X117855276Y-151652500D01*
%TO.C,R22*%
X149605276Y-146572500D02*
X150114724Y-146572500D01*
X149605276Y-145527500D02*
X150114724Y-145527500D01*
%TO.C,R39*%
X154050276Y-160767500D02*
X154559724Y-160767500D01*
X154050276Y-161812500D02*
X154559724Y-161812500D01*
%TO.C,R28*%
X149605276Y-161812500D02*
X150114724Y-161812500D01*
X149605276Y-160767500D02*
X150114724Y-160767500D01*
%TO.C,J2*%
X115630000Y-171455000D02*
X115630000Y-181675000D01*
X112970000Y-171455000D02*
X112970000Y-181675000D01*
X112970000Y-181675000D02*
X115630000Y-181675000D01*
X112970000Y-171455000D02*
X115630000Y-171455000D01*
X112970000Y-168855000D02*
X114300000Y-168855000D01*
X112970000Y-170185000D02*
X112970000Y-168855000D01*
%TO.C,R23*%
X149605276Y-148067500D02*
X150114724Y-148067500D01*
X149605276Y-149112500D02*
X150114724Y-149112500D01*
%TO.C,R16*%
X113410276Y-151652500D02*
X113919724Y-151652500D01*
X113410276Y-150607500D02*
X113919724Y-150607500D01*
%TO.C,R3*%
X118364724Y-160767500D02*
X117855276Y-160767500D01*
X118364724Y-161812500D02*
X117855276Y-161812500D01*
%TO.C,J3*%
X152340000Y-168850000D02*
X153670000Y-168850000D01*
X152340000Y-171450000D02*
X155000000Y-171450000D01*
X152340000Y-181670000D02*
X155000000Y-181670000D01*
X152340000Y-170180000D02*
X152340000Y-168850000D01*
X155000000Y-171450000D02*
X155000000Y-181670000D01*
X152340000Y-171450000D02*
X152340000Y-181670000D01*
%TO.C,R25*%
X149605276Y-154192500D02*
X150114724Y-154192500D01*
X149605276Y-153147500D02*
X150114724Y-153147500D01*
%TO.C,R40*%
X154050276Y-164352500D02*
X154559724Y-164352500D01*
X154050276Y-163307500D02*
X154559724Y-163307500D01*
%TO.C,R18*%
X113410276Y-145527500D02*
X113919724Y-145527500D01*
X113410276Y-146572500D02*
X113919724Y-146572500D01*
%TO.C,R14*%
X113410276Y-156732500D02*
X113919724Y-156732500D01*
X113410276Y-155687500D02*
X113919724Y-155687500D01*
%TO.C,R31*%
X154050276Y-140447500D02*
X154559724Y-140447500D01*
X154050276Y-141492500D02*
X154559724Y-141492500D01*
%TO.C,R19*%
X113410276Y-142987500D02*
X113919724Y-142987500D01*
X113410276Y-144032500D02*
X113919724Y-144032500D01*
%TO.C,R11*%
X113410276Y-163307500D02*
X113919724Y-163307500D01*
X113410276Y-164352500D02*
X113919724Y-164352500D01*
%TO.C,R33*%
X154050276Y-146572500D02*
X154559724Y-146572500D01*
X154050276Y-145527500D02*
X154559724Y-145527500D01*
%TO.C,J4*%
X113030000Y-132080000D02*
X113030000Y-129480000D01*
X110430000Y-130810000D02*
X110430000Y-129480000D01*
X110430000Y-132080000D02*
X110430000Y-132140000D01*
X115630000Y-129480000D02*
X115630000Y-132140000D01*
X110430000Y-132140000D02*
X115630000Y-132140000D01*
X110430000Y-132080000D02*
X113030000Y-132080000D01*
X110430000Y-129480000D02*
X111760000Y-129480000D01*
X113030000Y-129480000D02*
X115630000Y-129480000D01*
%TO.C,R10*%
X118364724Y-144032500D02*
X117855276Y-144032500D01*
X118364724Y-142987500D02*
X117855276Y-142987500D01*
%TO.C,R13*%
X113410276Y-159272500D02*
X113919724Y-159272500D01*
X113410276Y-158227500D02*
X113919724Y-158227500D01*
%TO.C,R15*%
X113410276Y-154192500D02*
X113919724Y-154192500D01*
X113410276Y-153147500D02*
X113919724Y-153147500D01*
%TO.C,R21*%
X149605276Y-142987500D02*
X150114724Y-142987500D01*
X149605276Y-144032500D02*
X150114724Y-144032500D01*
%TO.C,R26*%
X149605276Y-155687500D02*
X150114724Y-155687500D01*
X149605276Y-156732500D02*
X150114724Y-156732500D01*
%TO.C,R38*%
X154050276Y-158227500D02*
X154559724Y-158227500D01*
X154050276Y-159272500D02*
X154559724Y-159272500D01*
%TO.C,R5*%
X118364724Y-156732500D02*
X117855276Y-156732500D01*
X118364724Y-155687500D02*
X117855276Y-155687500D01*
%TO.C,R4*%
X118364724Y-159272500D02*
X117855276Y-159272500D01*
X118364724Y-158227500D02*
X117855276Y-158227500D01*
%TO.C,R32*%
X154050276Y-144032500D02*
X154559724Y-144032500D01*
X154050276Y-142987500D02*
X154559724Y-142987500D01*
%TO.C,R27*%
X149605276Y-159272500D02*
X150114724Y-159272500D01*
X149605276Y-158227500D02*
X150114724Y-158227500D01*
%TO.C,R20*%
X113410276Y-140447500D02*
X113919724Y-140447500D01*
X113410276Y-141492500D02*
X113919724Y-141492500D01*
%TO.C,R35*%
X154050276Y-151652500D02*
X154559724Y-151652500D01*
X154050276Y-150607500D02*
X154559724Y-150607500D01*
%TO.C,R24*%
X149605276Y-150607500D02*
X150114724Y-150607500D01*
X149605276Y-151652500D02*
X150114724Y-151652500D01*
%TO.C,J5*%
X157540000Y-129480000D02*
X157540000Y-132140000D01*
X154940000Y-132080000D02*
X154940000Y-129480000D01*
X152340000Y-132080000D02*
X154940000Y-132080000D01*
X152340000Y-132140000D02*
X157540000Y-132140000D01*
X152340000Y-129480000D02*
X153670000Y-129480000D01*
X154940000Y-129480000D02*
X157540000Y-129480000D01*
X152340000Y-130810000D02*
X152340000Y-129480000D01*
X152340000Y-132080000D02*
X152340000Y-132140000D01*
%TO.C,R6*%
X118364724Y-153147500D02*
X117855276Y-153147500D01*
X118364724Y-154192500D02*
X117855276Y-154192500D01*
%TO.C,R1*%
X118364724Y-165847500D02*
X117855276Y-165847500D01*
X118364724Y-166892500D02*
X117855276Y-166892500D01*
%TO.C,R17*%
X113410276Y-148067500D02*
X113919724Y-148067500D01*
X113410276Y-149112500D02*
X113919724Y-149112500D01*
%TO.C,R9*%
X118364724Y-146572500D02*
X117855276Y-146572500D01*
X118364724Y-145527500D02*
X117855276Y-145527500D01*
%TO.C,R2*%
X118364724Y-164352500D02*
X117855276Y-164352500D01*
X118364724Y-163307500D02*
X117855276Y-163307500D01*
%TO.C,R8*%
X118364724Y-149112500D02*
X117855276Y-149112500D01*
X118364724Y-148067500D02*
X117855276Y-148067500D01*
%TO.C,R34*%
X154050276Y-148067500D02*
X154559724Y-148067500D01*
X154050276Y-149112500D02*
X154559724Y-149112500D01*
%TO.C,R37*%
X154050276Y-156732500D02*
X154559724Y-156732500D01*
X154050276Y-155687500D02*
X154559724Y-155687500D01*
%TO.C,R30*%
X149605276Y-165847500D02*
X150114724Y-165847500D01*
X149605276Y-166892500D02*
X150114724Y-166892500D01*
%TO.C,R12*%
X113410276Y-161812500D02*
X113919724Y-161812500D01*
X113410276Y-160767500D02*
X113919724Y-160767500D01*
%TO.C,R36*%
X154050276Y-153147500D02*
X154559724Y-153147500D01*
X154050276Y-154192500D02*
X154559724Y-154192500D01*
%TD*%
M02*
